<?xml version="1.0" encoding="UTF-8" ?>
<!DOCTYPE svg PUBLIC "-//W3C//DTD SVG 1.1//EN" "http://www.w3.org/Graphics/SVG/1.1/DTD/svg11.dtd">
<svg width="1166pt" height="487pt" viewBox="0 0 1166 487" version="1.1" xmlns="http://www.w3.org/2000/svg">
<g id="#ffffffff">
<path fill="#ffffff" opacity="1.00" d=" M 483.27 252.26 C 485.45 249.81 488.96 250.42 491.82 250.92 C 491.62 251.81 491.43 252.71 491.23 253.62 C 489.82 253.59 488.41 253.67 487.03 253.88 C 484.60 256.84 484.57 261.38 486.35 264.66 C 487.37 266.50 489.75 265.61 491.43 265.84 C 491.48 266.51 491.57 267.85 491.62 268.52 C 488.57 269.83 484.39 269.52 482.49 266.48 C 479.88 262.25 479.95 256.10 483.27 252.26 Z" />
<path fill="#ffffff" opacity="1.00" d=" M 497.31 251.26 C 500.31 249.64 504.77 250.27 506.49 253.46 C 508.50 257.19 508.51 261.96 506.74 265.78 C 504.61 270.64 496.50 270.33 494.73 265.33 C 493.01 260.81 492.99 254.33 497.31 251.26 M 499.65 253.63 C 497.81 255.54 498.15 258.64 498.11 261.11 C 498.12 263.25 498.88 267.05 501.88 265.97 C 504.25 263.32 503.68 259.28 503.27 256.03 C 503.26 254.24 501.33 252.37 499.65 253.63 Z" />
<path fill="#ffffff" opacity="1.00" d=" M 509.44 250.65 C 510.95 250.65 512.48 250.65 514.01 250.66 C 515.02 254.82 516.01 258.99 517.01 263.17 C 518.03 258.99 519.06 254.82 520.10 250.65 C 521.47 250.65 522.85 250.65 524.24 250.66 C 522.41 256.77 520.55 262.87 518.74 268.99 C 517.48 268.99 516.23 269.00 514.99 269.00 C 513.14 262.89 511.29 256.77 509.44 250.65 Z" />
<path fill="#ffffff" opacity="1.00" d=" M 526.03 250.66 C 527.47 250.66 528.91 250.65 530.36 250.66 C 530.36 256.77 530.36 262.88 530.36 269.00 C 528.91 269.00 527.47 269.00 526.03 269.00 C 526.03 262.89 526.03 256.77 526.03 250.66 Z" />
<path fill="#ffffff" opacity="1.00" d=" M 534.10 251.18 C 537.78 250.32 542.50 249.56 545.33 252.73 C 548.25 256.42 548.13 262.00 546.03 266.05 C 543.64 270.00 538.17 269.66 534.32 268.47 C 533.59 262.77 534.10 256.93 534.10 251.18 M 538.43 252.81 C 538.13 257.36 538.22 261.92 538.31 266.47 C 539.75 266.03 541.82 266.23 542.45 264.52 C 543.45 261.60 543.42 258.29 542.57 255.34 C 542.13 253.43 539.89 253.46 538.43 252.81 Z" />
<path fill="#ffffff" opacity="1.00" d=" M 560.23 253.64 C 563.31 252.73 566.12 251.12 569.21 250.23 C 569.35 256.49 569.25 262.74 569.28 269.00 C 567.86 269.00 566.45 269.00 565.04 269.00 C 565.04 264.39 565.04 259.79 565.05 255.19 C 563.62 255.46 562.20 255.74 560.78 256.00 C 560.64 255.41 560.37 254.23 560.23 253.64 Z" />
<path fill="#ffffff" opacity="1.00" d=" M 574.63 257.99 C 573.43 254.07 576.87 249.97 580.94 250.48 C 584.51 250.20 587.00 253.65 586.92 256.95 C 587.46 262.62 583.16 267.94 577.73 269.21 C 577.32 268.64 576.51 267.49 576.10 266.92 C 578.41 265.74 580.53 264.23 582.45 262.48 C 579.54 261.87 575.29 261.66 574.63 257.99 M 578.98 258.97 C 580.19 259.54 581.54 259.69 582.86 259.96 C 582.96 257.51 583.74 252.81 580.01 252.98 C 577.95 254.19 577.98 257.07 578.98 258.97 Z" />
<path fill="#ffffff" opacity="1.00" d=" M 550.05 258.53 C 552.34 258.53 554.65 258.53 556.95 258.53 C 556.94 259.55 556.95 260.57 556.95 261.59 C 554.64 261.59 552.32 261.59 550.02 261.59 C 550.02 260.57 550.03 259.55 550.05 258.53 Z" />
</g>
<g id="#221f20ff">
<path fill="#221f20" opacity="1.00" d=" M 131.04 54.92 C 128.26 48.26 133.77 39.78 141.05 39.82 C 147.72 38.92 154.21 45.35 153.21 52.04 C 152.65 55.98 149.87 59.06 147.29 61.88 C 148.35 75.23 150.62 88.43 152.51 101.67 C 153.12 101.69 154.34 101.74 154.95 101.76 C 155.03 98.60 154.75 95.41 155.24 92.28 C 156.42 90.04 159.72 90.07 161.04 92.15 C 161.66 95.47 161.32 98.89 161.47 102.25 C 162.88 102.54 164.30 102.82 165.72 103.11 C 168.22 94.48 170.75 85.84 172.61 77.04 C 173.48 74.67 171.14 73.01 170.56 70.89 C 168.66 66.68 172.57 61.54 177.03 61.68 C 181.90 61.11 186.16 66.77 184.18 71.25 C 183.24 73.93 180.41 75.11 178.20 76.55 C 175.52 85.94 173.82 95.57 171.79 105.12 C 172.67 105.49 173.56 105.85 174.45 106.22 C 176.27 103.09 177.77 99.75 179.94 96.85 C 182.07 94.66 186.10 97.00 185.07 100.00 C 183.82 103.33 181.67 106.25 180.03 109.40 C 181.24 110.21 182.43 111.04 183.61 111.91 C 194.08 102.13 205.01 92.74 214.54 82.01 C 213.90 76.85 214.37 70.17 219.56 67.44 C 225.26 63.78 233.84 66.65 236.06 73.08 C 238.13 77.24 236.65 82.36 233.56 85.58 C 230.14 88.68 225.15 89.13 220.79 88.33 C 212.19 95.52 204.76 103.95 196.91 111.91 C 194.62 114.48 191.80 116.78 190.52 120.08 C 194.09 118.67 196.85 115.90 200.16 114.05 C 202.92 113.12 205.24 116.24 204.00 118.74 C 201.53 121.83 196.48 122.63 195.54 126.83 C 203.44 123.56 211.19 119.84 218.65 115.66 C 220.72 113.12 220.74 108.59 224.50 107.51 C 230.58 104.87 236.87 112.76 233.22 118.19 C 230.95 122.36 225.54 121.93 221.84 120.14 C 214.14 123.66 206.73 127.79 199.41 132.02 C 202.64 131.32 205.74 130.07 209.03 129.63 C 211.98 129.62 213.18 134.07 210.58 135.47 C 207.99 136.59 205.17 137.01 202.49 137.84 C 212.74 137.36 222.90 135.75 233.10 134.67 C 238.66 133.74 244.40 133.41 249.80 131.70 C 252.00 128.67 254.16 125.26 257.82 123.83 C 264.55 120.84 272.88 126.72 273.04 133.92 C 273.66 140.09 268.34 146.30 262.05 146.13 C 257.74 146.16 254.29 143.19 251.20 140.56 C 242.75 141.05 234.45 142.80 226.11 144.12 C 218.58 145.57 210.96 146.64 203.50 148.39 C 203.16 148.73 202.47 149.40 202.12 149.73 C 205.40 150.11 208.71 149.79 211.99 150.09 C 214.68 150.55 215.31 154.62 212.97 155.97 C 209.20 156.66 205.34 156.22 201.55 156.76 C 202.43 157.79 203.33 158.88 204.73 159.20 C 213.17 162.34 221.62 165.50 230.28 167.97 C 232.60 166.65 235.21 165.19 237.99 165.76 C 241.97 166.51 244.57 171.16 243.23 174.98 C 242.22 179.24 236.73 181.50 232.99 179.29 C 230.77 177.88 229.79 175.31 228.58 173.11 C 220.50 170.06 212.16 167.83 203.89 165.39 C 202.28 164.56 200.76 165.17 199.45 166.23 C 202.55 168.07 206.12 168.94 209.19 170.81 C 211.35 172.56 209.82 176.55 207.01 176.38 C 203.72 175.58 200.73 173.93 197.57 172.77 C 197.29 173.46 196.72 174.85 196.43 175.55 C 208.84 183.34 220.72 192.13 233.92 198.60 C 238.42 196.37 244.58 195.87 248.46 199.60 C 252.90 203.32 253.54 210.51 250.02 215.07 C 246.59 219.89 239.26 221.29 234.41 217.80 C 230.75 215.08 229.87 210.29 229.07 206.09 C 220.30 199.89 210.77 194.88 201.48 189.55 C 197.56 187.48 193.87 184.91 189.68 183.38 C 189.78 188.13 197.59 189.45 196.00 194.65 C 195.10 196.34 193.19 196.07 191.58 196.22 C 189.31 193.80 186.94 191.48 184.56 189.17 C 183.52 190.03 182.47 190.89 181.42 191.74 C 185.76 201.22 189.95 210.79 195.11 219.86 C 198.30 220.85 202.50 222.07 203.12 225.92 C 204.36 230.73 199.70 235.59 194.91 234.86 C 192.22 234.40 190.47 232.22 188.86 230.23 C 188.79 227.45 189.39 224.76 189.98 222.08 C 185.97 212.62 180.51 203.83 175.60 194.82 C 175.16 195.20 174.26 195.96 173.82 196.34 C 174.93 199.20 176.37 201.97 177.02 204.98 C 177.26 207.50 174.34 208.89 172.20 208.04 C 169.87 205.21 169.09 201.49 167.73 198.16 C 166.51 198.54 165.30 198.92 164.09 199.28 C 165.54 213.25 165.91 227.38 168.58 241.18 C 171.90 244.21 176.64 246.92 177.01 251.92 C 177.84 257.78 173.32 263.63 167.50 264.46 C 161.09 265.73 154.43 260.52 154.05 254.03 C 153.88 249.48 156.74 245.54 159.87 242.54 C 159.11 228.30 156.51 214.25 154.48 200.16 C 152.98 200.11 151.48 200.07 149.98 200.03 C 149.53 203.27 149.37 206.54 148.85 209.77 C 147.78 212.22 144.28 212.28 143.02 209.98 C 142.61 206.45 143.11 202.87 143.44 199.35 C 141.97 198.94 140.53 198.49 139.09 198.02 C 136.59 206.91 133.86 215.77 132.22 224.87 C 133.56 227.60 136.04 230.51 134.69 233.73 C 133.60 237.38 129.27 239.46 125.71 238.28 C 122.18 237.44 119.86 233.56 120.61 230.03 C 121.11 226.79 124.38 225.28 126.85 223.70 C 129.41 214.96 131.03 205.98 132.91 197.08 C 133.58 195.58 131.47 195.29 130.75 194.45 C 128.90 197.39 127.64 200.77 125.26 203.34 C 123.22 205.42 119.54 202.60 120.36 200.10 C 121.58 197.01 123.50 194.26 125.12 191.37 C 124.59 190.92 123.53 190.03 123.01 189.59 C 113.18 198.57 103.31 207.50 93.85 216.87 C 91.88 218.81 90.01 220.84 88.33 223.03 C 89.17 228.35 88.34 235.50 82.65 237.79 C 77.02 240.98 69.22 237.87 66.93 231.93 C 64.85 227.32 66.39 221.40 70.45 218.39 C 73.84 216.08 78.18 215.80 82.12 216.51 C 94.28 206.20 104.74 194.06 115.65 182.49 C 115.41 182.09 114.94 181.29 114.70 180.90 C 111.60 182.27 109.18 184.84 106.00 186.04 C 103.51 186.12 101.68 183.19 102.99 181.02 C 105.59 178.48 109.14 177.12 111.52 174.33 C 108.60 174.74 106.01 176.18 103.38 177.42 C 98.67 179.76 93.84 181.91 89.40 184.75 C 88.81 188.31 86.89 192.35 82.85 192.75 C 76.89 193.65 72.25 185.98 76.05 181.19 C 78.42 177.44 83.45 177.84 86.92 179.66 C 94.12 176.62 100.85 172.61 107.69 168.88 C 107.02 166.92 106.36 164.96 105.75 162.98 C 92.00 163.50 78.19 164.06 64.57 166.14 C 62.06 169.85 58.78 173.93 53.98 174.32 C 47.71 174.94 41.53 169.38 41.84 163.02 C 41.23 156.48 47.62 150.60 54.02 151.33 C 57.87 151.93 61.16 154.28 63.68 157.16 C 77.31 157.22 90.79 154.89 104.29 153.34 C 104.33 152.82 104.41 151.78 104.44 151.27 C 101.16 151.08 97.87 151.00 94.59 151.01 C 93.12 149.27 92.15 146.71 94.36 145.07 C 98.12 144.34 102.01 145.24 105.80 144.53 C 103.52 142.81 100.54 142.84 97.87 142.20 C 90.90 141.01 83.94 139.38 76.87 139.01 C 74.16 140.50 71.43 143.09 68.07 142.05 C 63.64 141.07 61.22 135.41 63.57 131.52 C 65.03 128.50 68.78 127.03 71.95 127.97 C 75.32 129.05 76.19 133.76 79.95 133.95 C 89.02 135.33 98.13 136.69 107.30 137.14 C 104.61 134.22 100.34 133.99 97.16 131.84 C 95.97 130.46 96.31 128.69 97.29 127.30 C 101.65 124.12 106.58 131.93 110.49 128.27 C 98.18 120.15 86.05 111.60 72.92 104.87 C 68.70 105.78 64.05 107.22 59.93 105.17 C 54.17 102.28 52.15 94.24 55.68 88.90 C 58.93 83.37 67.15 81.69 72.21 85.71 C 75.54 88.50 76.48 93.02 77.21 97.10 C 85.99 103.40 95.61 108.41 104.96 113.80 C 108.78 115.88 112.50 118.18 116.49 119.95 C 114.25 117.41 111.31 115.58 109.12 113.01 C 108.80 111.54 109.54 110.14 109.86 108.75 C 115.08 107.52 117.28 113.54 121.85 114.49 C 117.45 104.63 112.95 94.80 107.78 85.31 C 104.52 84.21 100.16 83.00 99.63 78.97 C 98.20 73.36 104.97 68.15 110.00 71.03 C 114.73 73.00 114.46 78.91 112.55 82.82 C 116.76 91.97 121.86 100.65 126.69 109.47 C 128.64 108.44 130.58 107.37 132.54 106.37 C 131.75 102.90 130.42 99.55 129.94 96.01 C 130.68 93.74 133.71 92.61 135.52 94.38 C 137.23 97.31 137.62 100.78 138.49 104.02 C 140.02 103.58 141.55 103.13 143.09 102.69 C 141.86 89.45 141.30 76.07 138.68 63.01 C 135.69 60.80 132.44 58.55 131.04 54.92 Z" />
<path fill="#221f20" opacity="1.00" d=" M 343.76 52.93 C 344.92 52.45 346.08 51.96 347.25 51.47 C 348.77 52.36 350.67 53.05 351.33 54.86 C 351.92 57.17 350.16 58.93 349.01 60.69 C 349.76 65.74 350.49 70.79 351.10 75.85 C 351.81 73.97 351.60 71.16 354.17 70.87 C 354.40 72.76 354.65 74.65 354.93 76.53 C 357.41 73.94 357.65 70.20 358.41 66.87 C 359.01 64.77 356.56 62.13 358.89 60.65 C 360.43 59.62 362.46 60.48 363.32 61.99 C 363.83 63.95 361.99 64.97 360.85 66.16 C 359.86 69.97 358.66 73.76 358.42 77.71 C 360.27 76.49 360.96 72.15 363.60 73.64 C 363.02 75.55 362.24 77.39 361.62 79.28 C 366.69 76.79 370.24 72.10 374.31 68.30 C 374.61 66.28 374.22 63.58 376.36 62.42 C 379.86 59.48 385.38 65.02 382.43 68.49 C 380.80 71.12 376.91 69.66 375.02 71.98 C 371.76 75.24 368.50 78.51 365.45 81.96 C 367.17 81.43 368.80 79.78 370.72 80.26 C 370.78 82.50 368.27 83.47 367.06 85.05 C 370.26 83.70 373.32 82.05 376.43 80.51 C 376.88 79.49 377.33 78.48 377.80 77.47 C 378.73 77.53 380.61 77.64 381.54 77.69 C 381.70 79.23 382.24 80.90 381.31 82.32 C 379.93 82.94 378.42 82.61 376.99 82.54 C 374.25 83.89 371.55 85.30 368.83 86.66 C 370.56 86.72 373.37 84.54 373.98 87.27 C 372.88 87.90 371.76 88.48 370.61 89.01 C 375.43 88.36 380.29 87.93 385.12 87.37 C 388.69 87.55 390.22 82.09 394.05 83.76 C 397.78 84.75 397.75 90.93 393.98 91.80 C 391.52 92.81 389.48 90.01 387.04 90.29 C 381.12 90.82 375.20 91.73 369.49 93.39 C 371.32 93.56 373.16 93.73 375.01 93.90 C 374.26 96.39 371.52 96.06 369.50 96.68 C 373.02 97.80 376.48 99.06 379.95 100.31 C 381.74 99.95 384.23 98.73 385.40 100.90 C 386.78 103.31 383.64 106.15 381.55 104.38 C 378.49 100.40 373.01 100.48 368.59 99.09 C 370.31 100.42 372.83 100.99 373.55 103.31 C 371.37 103.56 369.30 102.82 367.20 102.47 C 370.99 105.66 375.31 108.16 379.54 110.71 C 382.03 112.84 386.16 109.74 388.06 112.98 C 390.46 115.75 387.70 120.77 383.99 119.85 C 381.16 119.99 380.59 116.77 380.00 114.70 C 375.17 111.54 370.10 108.74 364.99 106.05 C 365.82 107.72 368.30 109.14 367.29 111.23 C 365.42 110.42 363.69 109.33 361.83 108.51 C 363.45 112.40 364.97 116.39 367.41 119.86 C 368.26 120.84 371.05 121.07 370.40 122.96 C 370.72 125.79 365.72 126.93 365.18 123.95 C 365.24 118.60 361.94 114.23 359.26 109.88 C 359.30 111.99 362.01 115.61 358.48 115.71 C 357.70 114.12 356.91 112.51 355.75 111.15 C 355.48 116.87 356.36 122.57 357.33 128.19 C 358.91 129.71 361.40 131.37 360.34 133.94 C 359.17 137.81 352.99 137.81 351.75 134.01 C 350.84 131.76 352.77 130.02 353.92 128.34 C 353.46 122.65 352.84 116.89 350.98 111.46 C 350.37 113.23 349.91 115.04 349.45 116.85 C 348.97 116.80 348.00 116.71 347.51 116.67 C 347.04 115.10 348.81 111.40 346.09 111.83 C 344.47 116.31 342.75 121.20 344.50 125.93 C 343.49 126.46 342.48 126.99 341.48 127.53 C 340.26 126.60 338.82 125.70 338.63 124.01 C 339.44 122.95 340.40 122.02 341.35 121.09 C 342.29 117.37 343.45 113.66 343.58 109.81 C 342.59 111.08 341.67 112.41 340.79 113.76 C 339.99 113.64 339.20 113.52 338.41 113.40 C 339.25 111.72 340.13 110.06 340.93 108.36 C 335.67 111.64 331.53 116.38 327.17 120.72 C 326.90 122.66 326.47 124.58 325.83 126.44 C 324.04 126.71 322.03 128.02 320.39 126.66 C 318.12 125.65 317.88 122.66 318.72 120.62 C 320.02 118.60 322.69 118.77 324.78 118.41 C 329.26 114.15 333.66 109.78 337.65 105.06 C 335.83 105.93 334.03 106.83 332.18 107.61 C 331.75 105.27 333.78 104.16 335.21 102.78 C 332.67 103.89 330.15 105.04 327.72 106.37 C 326.70 107.95 325.57 110.84 323.16 109.59 C 320.64 108.69 321.03 104.18 323.92 104.49 C 327.49 104.86 330.63 102.84 333.42 100.88 C 333.59 100.30 333.93 99.15 334.10 98.57 C 328.78 98.49 323.46 98.95 318.19 99.66 C 316.79 100.81 315.57 102.36 313.78 102.92 C 310.20 103.16 307.56 98.69 309.89 95.80 C 311.89 92.92 315.92 94.43 317.97 96.46 C 321.99 96.19 326.00 95.76 329.97 95.06 C 330.81 94.84 332.50 94.39 333.34 94.17 C 331.46 93.91 329.57 93.65 327.72 93.28 C 328.81 91.07 331.40 91.58 333.34 91.06 C 328.23 90.35 323.10 88.95 318.05 90.69 C 317.71 89.90 317.02 88.31 316.68 87.52 C 317.64 86.53 318.43 84.90 320.07 85.05 C 321.12 85.72 322.04 86.57 322.99 87.39 C 326.71 87.96 330.45 88.44 334.21 88.73 C 332.27 87.72 329.82 87.13 329.37 84.62 C 331.39 84.96 333.39 85.42 335.41 85.81 C 330.91 82.37 326.08 79.38 321.11 76.67 C 318.89 77.08 316.00 77.85 314.58 75.49 C 312.09 72.48 315.20 67.38 319.04 68.48 C 321.65 68.87 321.86 71.94 322.72 73.88 C 327.36 76.80 332.26 79.28 336.89 82.21 C 335.85 80.91 334.86 79.56 333.99 78.15 C 336.07 78.00 337.79 79.03 339.45 80.12 C 337.78 76.34 335.88 72.68 334.06 68.98 C 333.32 68.75 331.86 68.29 331.13 68.06 C 331.20 66.68 331.38 65.32 331.67 63.97 C 333.30 62.98 336.35 63.59 336.19 65.89 C 335.89 70.43 339.24 73.99 341.07 77.88 C 341.66 77.76 342.85 77.52 343.44 77.40 C 343.22 75.60 342.06 73.67 343.08 71.95 C 345.17 72.76 345.65 75.38 347.24 76.81 C 347.61 72.12 346.98 67.41 346.19 62.79 C 345.96 60.38 343.60 59.10 342.60 57.06 C 342.53 55.59 343.33 54.28 343.76 52.93 Z" />
<path fill="#221f20" opacity="1.00" d=" M 996.22 76.80 C 997.94 76.72 1000.15 75.77 1001.37 77.56 C 1002.86 79.38 1001.21 81.37 1000.29 82.98 C 1000.85 86.70 1001.29 90.43 1001.92 94.14 C 1002.40 92.68 1002.92 91.23 1003.47 89.78 C 1003.83 91.00 1004.55 93.45 1004.91 94.67 C 1006.09 92.17 1006.79 89.50 1007.36 86.80 C 1006.48 84.89 1006.77 83.09 1008.53 81.80 C 1009.40 82.64 1010.28 83.48 1011.15 84.34 C 1008.01 87.12 1008.00 91.45 1007.01 95.20 C 1008.31 93.88 1009.59 92.53 1011.06 91.37 C 1010.62 93.19 1010.08 94.98 1009.61 96.78 C 1012.58 94.74 1015.24 92.26 1017.74 89.66 C 1019.24 88.21 1018.94 85.79 1020.29 84.24 C 1022.23 82.48 1025.78 84.36 1025.37 86.95 C 1025.72 89.87 1022.24 89.59 1020.39 90.44 C 1017.37 92.82 1014.92 95.84 1012.19 98.53 C 1013.65 97.88 1015.13 97.26 1016.63 96.67 C 1015.88 97.99 1015.11 99.28 1014.32 100.55 C 1016.28 99.50 1018.28 98.49 1020.26 97.45 C 1020.80 96.55 1021.38 95.68 1022.02 94.84 C 1023.93 94.72 1026.39 97.22 1024.00 98.53 C 1020.70 98.92 1017.72 100.32 1014.80 101.82 C 1015.64 101.64 1017.31 101.30 1018.14 101.13 L 1018.49 102.70 C 1017.82 102.96 1016.46 103.47 1015.78 103.73 C 1020.02 103.14 1024.29 102.77 1028.52 102.10 C 1029.82 101.14 1031.02 99.08 1032.92 99.64 C 1035.83 99.66 1036.56 104.19 1034.14 105.41 C 1032.53 107.01 1030.69 104.94 1029.16 104.34 C 1024.60 105.00 1020.07 105.84 1015.51 106.38 C 1016.98 106.83 1018.51 107.31 1019.87 108.11 C 1018.83 108.43 1016.77 109.06 1015.73 109.38 C 1019.28 110.48 1022.81 112.36 1026.65 111.42 C 1026.93 112.50 1027.84 113.78 1026.75 114.73 C 1025.30 116.70 1023.64 114.12 1022.59 113.16 C 1020.01 112.36 1017.42 111.59 1014.83 110.86 C 1016.17 111.92 1017.52 112.99 1018.79 114.16 C 1017.49 114.03 1014.89 113.75 1013.58 113.62 C 1016.98 115.96 1020.47 118.17 1024.05 120.24 C 1026.80 119.54 1029.14 120.46 1030.50 122.99 C 1029.48 125.13 1026.61 127.76 1024.53 125.43 C 1022.40 120.13 1016.21 119.02 1012.05 115.84 C 1012.92 117.26 1013.78 118.70 1014.51 120.22 C 1012.84 119.44 1011.25 118.52 1009.63 117.66 C 1011.31 121.38 1012.40 125.91 1016.31 127.96 C 1015.80 129.10 1015.29 130.29 1014.03 130.76 C 1011.66 130.34 1012.22 127.74 1011.68 126.01 C 1010.83 123.52 1009.28 121.34 1008.03 119.04 C 1008.16 120.23 1008.40 122.62 1008.53 123.82 C 1007.30 122.58 1006.21 121.27 1005.06 119.98 C 1005.29 123.37 1005.38 126.78 1005.93 130.15 C 1006.15 132.48 1008.14 134.00 1009.27 135.92 C 1007.93 137.98 1005.47 139.86 1003.10 137.99 C 1001.31 136.07 1002.83 133.85 1004.02 132.12 C 1003.34 128.13 1002.91 124.10 1002.05 120.15 C 1001.23 121.72 1000.55 123.33 999.67 124.86 C 999.14 123.10 998.78 121.33 998.31 119.56 C 997.51 122.09 996.80 124.65 996.04 127.19 C 996.37 128.15 996.72 129.11 997.08 130.06 C 996.49 130.58 995.32 131.61 994.74 132.12 C 994.21 131.54 993.15 130.37 992.62 129.79 C 993.14 128.78 993.81 127.86 994.63 127.04 C 995.38 124.36 996.01 121.65 996.39 118.90 C 995.22 120.02 994.52 121.85 992.74 122.14 C 993.11 120.56 993.63 119.02 994.13 117.48 C 990.73 120.46 987.33 123.43 984.24 126.73 C 984.19 129.15 982.87 131.03 980.97 132.40 C 979.50 131.31 977.02 130.30 977.65 128.01 C 977.68 124.92 981.64 125.97 983.30 124.29 C 986.27 121.63 988.90 118.61 991.69 115.76 C 990.61 116.11 988.45 116.81 987.37 117.16 C 987.96 116.27 989.12 114.50 989.71 113.61 C 986.73 114.95 984.11 116.82 981.97 119.28 C 980.26 118.54 979.90 116.99 980.19 115.32 C 983.73 115.08 987.89 114.15 989.68 110.71 C 985.61 110.52 981.57 111.00 977.54 111.38 C 976.33 112.41 975.10 113.41 973.88 114.41 C 972.08 113.22 969.71 111.48 971.13 109.02 C 972.26 106.21 975.57 107.66 977.37 108.96 C 981.19 109.04 984.94 108.24 988.69 107.61 C 987.59 107.34 985.40 106.80 984.30 106.54 C 985.63 105.90 987.07 105.46 988.53 105.14 C 985.52 104.96 982.50 103.35 979.53 104.53 C 977.44 105.85 975.66 102.85 976.98 101.12 C 979.12 100.59 980.79 102.34 982.82 102.64 C 984.89 103.00 987.01 103.24 989.10 103.60 C 987.73 102.67 986.37 101.72 985.11 100.69 C 986.81 100.73 988.56 100.92 990.28 101.12 C 987.10 99.10 984.05 96.87 980.70 95.16 C 978.78 94.24 975.94 95.68 974.68 93.52 C 972.76 91.35 975.37 87.79 978.05 88.55 C 979.97 88.77 980.14 91.20 981.03 92.54 C 984.22 94.62 987.62 96.38 990.88 98.36 C 990.39 97.24 989.94 96.12 989.51 94.98 C 990.76 95.71 992.00 96.46 993.26 97.21 C 991.67 93.46 989.91 89.75 986.82 87.01 C 986.81 84.68 989.04 84.94 990.68 85.27 C 990.50 89.44 992.84 92.93 995.04 96.24 C 995.73 94.43 995.95 92.50 996.25 90.60 C 997.08 91.97 997.97 93.35 998.90 94.68 C 998.69 90.24 999.47 85.12 996.48 81.41 C 995.13 80.11 996.02 78.35 996.22 76.80 Z" />
<path fill="#221f20" opacity="1.00" d=" M 500.07 122.37 C 498.42 113.49 505.89 104.35 514.91 104.11 C 523.70 103.37 532.11 111.22 531.68 120.08 C 530.99 125.69 527.46 130.43 523.48 134.24 C 524.43 152.71 528.00 170.93 530.57 189.22 C 531.42 189.21 533.10 189.19 533.95 189.18 C 534.24 184.90 533.59 180.52 534.44 176.31 C 535.58 173.55 538.97 174.19 541.31 174.60 C 543.82 179.40 542.44 184.99 542.88 190.17 C 544.82 190.50 546.77 190.83 548.72 191.19 C 552.42 178.49 556.26 165.78 558.67 152.75 C 556.76 150.18 554.80 147.37 554.80 144.02 C 554.38 137.36 562.27 132.20 568.28 134.87 C 573.42 136.57 576.33 143.06 573.99 147.99 C 572.36 151.14 569.10 152.93 566.11 154.58 C 562.19 167.51 559.83 180.87 557.19 194.11 C 558.37 194.62 559.54 195.13 560.74 195.64 C 563.16 191.44 565.28 187.04 568.02 183.03 C 570.60 179.47 576.78 182.73 575.59 186.88 C 573.64 191.42 570.75 195.51 568.52 199.92 C 570.53 200.81 572.89 204.41 575.01 201.94 C 587.64 190.28 600.49 178.83 612.45 166.48 C 613.73 164.84 615.98 163.41 615.89 161.12 C 615.53 154.89 615.93 147.36 621.40 143.29 C 628.43 137.58 640.07 139.72 644.60 147.58 C 649.44 154.65 646.75 165.43 639.17 169.39 C 634.78 171.46 629.67 172.02 624.94 170.85 C 619.27 175.18 614.34 180.36 609.28 185.36 C 600.39 194.27 591.85 203.52 583.10 212.56 C 583.46 212.98 584.19 213.84 584.55 214.26 C 588.17 212.01 591.47 209.29 595.07 207.00 C 596.91 205.72 599.73 206.11 601.07 207.94 C 602.24 209.40 601.62 211.38 601.59 213.08 C 597.76 215.96 593.83 218.69 589.90 221.43 C 590.17 222.00 590.71 223.14 590.97 223.70 C 599.54 219.80 608.03 215.72 616.45 211.49 C 618.57 210.35 620.84 209.37 622.69 207.78 C 624.10 204.38 624.79 200.26 628.12 198.10 C 632.15 195.92 637.81 196.58 640.78 200.24 C 644.38 204.24 643.85 211.23 639.57 214.56 C 635.82 217.80 630.40 216.49 626.26 214.77 C 615.32 219.43 605.04 225.50 594.68 231.30 C 599.13 230.06 603.56 228.67 608.07 227.67 C 612.16 227.36 614.41 233.68 610.59 235.76 C 606.51 237.49 602.09 238.33 597.82 239.49 C 608.88 238.54 619.87 237.10 630.92 236.03 C 642.32 234.34 653.88 233.49 665.09 230.69 C 668.41 223.41 676.40 216.68 684.84 219.28 C 693.06 221.15 698.64 230.39 696.31 238.51 C 694.69 245.66 687.40 251.37 679.98 250.36 C 674.82 249.64 670.78 246.11 666.85 243.01 C 660.54 242.92 654.22 243.88 648.01 245.05 C 631.85 247.43 615.82 250.67 599.73 253.45 C 599.75 254.26 599.79 255.08 599.83 255.89 C 604.18 255.98 608.59 255.45 612.92 256.02 C 616.65 257.07 616.92 262.98 613.27 264.27 C 608.52 264.94 603.68 264.43 598.90 264.78 C 598.99 266.58 599.88 267.89 601.74 268.18 C 613.79 272.43 625.68 277.26 638.07 280.44 C 641.01 278.47 644.43 276.81 648.08 277.36 C 654.37 278.25 658.43 286.29 655.02 291.80 C 652.62 296.75 645.80 298.71 641.14 295.82 C 638.35 293.81 637.02 290.52 635.54 287.55 C 623.05 282.82 610.06 279.65 597.33 275.69 C 596.97 276.78 596.62 277.87 596.27 278.96 C 600.37 280.82 604.89 281.94 608.66 284.44 C 612.17 286.98 608.96 293.00 604.87 291.82 C 600.70 290.71 596.88 288.60 592.88 287.01 C 592.25 288.26 591.64 289.51 591.02 290.75 C 604.75 299.79 618.50 308.82 632.62 317.26 C 635.91 319.23 639.27 321.09 642.82 322.59 C 649.45 319.37 658.79 318.96 663.98 324.99 C 669.64 330.83 669.45 340.95 663.80 346.72 C 658.36 352.62 648.13 353.39 642.17 347.89 C 638.14 344.00 637.25 338.27 636.06 333.07 C 628.15 326.72 618.93 322.19 610.25 316.99 C 601.42 312.04 592.70 306.86 583.68 302.26 C 583.00 302.43 581.63 302.76 580.95 302.93 C 583.81 306.70 587.95 309.37 590.55 313.33 C 592.40 317.08 587.58 321.14 584.19 318.76 C 580.81 316.02 577.94 312.71 574.83 309.67 C 573.33 310.83 571.82 311.98 570.29 313.10 C 576.51 326.18 582.09 339.62 589.51 352.07 C 593.27 353.02 597.71 354.23 599.55 358.03 C 602.59 363.66 598.50 371.51 592.12 372.17 C 586.61 373.29 580.44 368.84 580.61 363.05 C 580.38 360.24 581.87 357.75 582.42 355.09 C 576.58 342.13 569.37 329.84 562.37 317.49 C 561.57 318.04 560.80 318.63 560.06 319.25 C 561.09 323.31 563.28 326.97 564.37 331.01 C 565.09 335.45 558.33 337.60 556.18 333.80 C 554.33 329.99 553.01 325.95 551.43 322.02 C 549.77 322.50 548.12 322.98 546.47 323.45 C 547.32 333.62 548.33 343.77 549.02 353.95 C 550.36 363.28 550.50 372.79 552.82 381.96 C 557.68 384.67 562.19 388.62 564.09 393.99 C 566.55 403.28 558.65 413.41 549.05 413.27 C 539.06 414.13 529.80 403.13 533.48 393.53 C 534.70 389.37 537.62 386.13 540.55 383.08 C 539.74 363.56 536.07 344.25 533.25 324.95 C 531.14 324.90 529.04 324.85 526.94 324.79 C 526.35 329.57 526.04 334.39 525.18 339.14 C 522.38 341.09 517.91 340.81 516.93 337.03 C 516.88 332.54 517.85 328.10 518.21 323.63 C 516.10 323.06 514.00 322.45 511.92 321.80 C 508.53 334.17 504.71 346.46 502.40 359.09 C 505.14 362.44 507.59 367.18 505.62 371.49 C 503.77 376.25 497.83 378.90 493.06 377.04 C 487.79 375.46 484.75 368.99 486.96 363.94 C 488.57 360.62 492.07 359.09 494.96 357.12 C 498.98 344.66 501.01 331.64 503.75 318.86 C 502.62 318.25 501.51 317.66 500.40 317.06 C 497.87 320.98 496.13 325.47 493.04 329.01 C 489.89 331.76 484.67 327.93 486.30 324.07 C 488.11 320.05 490.61 316.37 492.73 312.51 C 491.75 311.70 490.77 310.90 489.80 310.09 C 476.02 322.88 461.91 335.33 448.67 348.68 C 446.37 350.99 444.14 353.37 442.11 355.91 C 443.06 363.05 442.21 372.24 435.08 375.99 C 427.68 380.67 417.01 377.50 413.09 369.78 C 409.34 363.15 411.31 353.98 417.58 349.62 C 422.22 346.78 427.96 345.95 433.25 347.26 C 438.39 343.47 442.81 338.79 447.37 334.33 C 458.32 323.22 469.06 311.92 479.73 300.54 C 479.15 299.71 478.58 298.89 478.02 298.07 C 474.60 300.24 471.39 302.75 467.84 304.69 C 464.24 306.97 459.63 301.59 462.33 298.33 C 465.60 294.78 470.66 293.38 473.64 289.46 C 471.51 289.08 469.70 290.23 467.86 291.04 C 459.69 294.98 451.41 298.72 443.56 303.29 C 442.68 306.95 441.54 311.09 438.13 313.20 C 433.16 316.31 425.91 313.64 423.94 308.18 C 421.88 303.45 424.23 297.24 429.09 295.34 C 432.68 293.71 436.65 295.05 440.04 296.55 C 449.98 292.43 459.17 286.79 468.67 281.78 C 467.76 278.99 466.87 276.20 466.03 273.40 C 453.99 273.74 442.00 274.99 429.97 275.58 C 423.65 275.89 417.36 276.68 411.10 277.60 C 409.96 277.69 408.91 278.24 408.35 279.25 C 405.22 283.51 401.37 287.75 396.07 289.11 C 387.09 290.80 377.75 283.19 377.78 274.01 C 377.08 265.18 385.13 257.00 393.94 257.52 C 399.62 258.03 404.30 261.67 408.05 265.69 C 413.34 266.25 418.67 265.44 423.94 264.96 C 437.30 263.74 450.62 262.08 463.92 260.33 C 463.93 259.41 463.94 258.48 463.95 257.56 C 459.90 257.37 455.83 257.51 451.79 257.13 C 447.76 256.24 447.51 249.76 451.46 248.58 C 456.21 247.85 461.06 249.20 465.81 248.27 C 464.50 247.00 462.85 246.22 461.05 246.06 C 449.33 244.19 437.72 241.26 425.85 240.57 C 422.82 242.58 419.79 245.24 415.94 245.24 C 411.15 244.84 406.98 240.77 406.58 235.94 C 406.00 230.21 411.20 224.62 417.02 225.12 C 421.64 225.11 424.51 229.41 426.77 232.86 C 437.66 235.31 448.83 236.14 459.88 237.58 C 462.57 237.78 465.72 239.16 467.99 236.97 C 463.80 234.53 458.97 233.51 454.73 231.21 C 451.46 228.71 453.75 222.83 457.88 223.36 C 462.20 224.57 466.24 226.58 470.50 228.00 C 470.99 227.13 471.49 226.26 471.99 225.39 C 461.66 218.56 451.31 211.77 440.81 205.21 C 433.97 201.00 427.20 196.61 419.89 193.25 C 415.39 195.74 409.99 196.17 405.04 195.06 C 396.30 192.35 391.70 181.12 396.21 173.11 C 400.06 164.52 412.23 161.57 419.63 167.31 C 424.23 171.13 425.67 177.35 426.51 182.99 C 438.32 191.34 451.16 198.10 463.68 205.30 C 469.31 208.25 474.64 211.78 480.51 214.24 C 477.89 210.90 474.15 208.73 471.25 205.68 C 468.69 202.59 472.26 197.70 475.98 198.90 C 479.80 200.64 482.34 204.26 485.91 206.41 C 486.44 206.37 487.52 206.31 488.05 206.28 C 482.70 194.85 477.49 183.35 471.72 172.13 C 470.70 170.24 469.79 168.26 468.41 166.60 C 464.81 165.35 460.36 164.42 458.47 160.70 C 455.99 156.15 457.86 149.89 462.41 147.43 C 466.74 144.95 472.88 146.14 475.68 150.38 C 478.43 154.06 477.37 159.15 475.26 162.87 C 480.87 175.77 488.20 187.81 494.95 200.12 C 497.61 198.60 500.30 197.14 502.96 195.62 C 502.03 191.02 499.95 186.66 499.64 181.96 C 499.75 177.88 506.01 176.70 507.75 180.29 C 509.40 184.21 509.94 188.50 511.41 192.50 C 513.46 191.84 515.53 191.22 517.60 190.59 C 515.67 172.27 515.07 153.73 511.36 135.64 C 506.12 132.89 501.39 128.31 500.07 122.37 M 483.27 252.26 C 479.95 256.10 479.88 262.25 482.49 266.48 C 484.39 269.52 488.57 269.83 491.62 268.52 C 491.57 267.85 491.48 266.51 491.43 265.84 C 489.75 265.61 487.37 266.50 486.35 264.66 C 484.57 261.38 484.60 256.84 487.03 253.88 C 488.41 253.67 489.82 253.59 491.23 253.62 C 491.43 252.71 491.62 251.81 491.82 250.92 C 488.96 250.42 485.45 249.81 483.27 252.26 M 497.31 251.26 C 492.99 254.33 493.01 260.81 494.73 265.33 C 496.50 270.33 504.61 270.64 506.74 265.78 C 508.51 261.96 508.50 257.19 506.49 253.46 C 504.77 250.27 500.31 249.64 497.31 251.26 M 509.44 250.65 C 511.29 256.77 513.14 262.89 514.99 269.00 C 516.23 269.00 517.48 268.99 518.74 268.99 C 520.55 262.87 522.41 256.77 524.24 250.66 C 522.85 250.65 521.47 250.65 520.10 250.65 C 519.06 254.82 518.03 258.99 517.01 263.17 C 516.01 258.99 515.02 254.82 514.01 250.66 C 512.48 250.65 510.95 250.65 509.44 250.65 M 526.03 250.66 C 526.03 256.77 526.03 262.89 526.03 269.00 C 527.47 269.00 528.91 269.00 530.36 269.00 C 530.36 262.88 530.36 256.77 530.36 250.66 C 528.91 250.65 527.47 250.66 526.03 250.66 M 534.10 251.18 C 534.10 256.93 533.59 262.77 534.32 268.47 C 538.17 269.66 543.64 270.00 546.03 266.05 C 548.13 262.00 548.25 256.42 545.33 252.73 C 542.50 249.56 537.78 250.32 534.10 251.18 M 560.23 253.64 C 560.37 254.23 560.64 255.41 560.78 256.00 C 562.20 255.74 563.62 255.46 565.05 255.19 C 565.04 259.79 565.04 264.39 565.04 269.00 C 566.45 269.00 567.86 269.00 569.28 269.00 C 569.25 262.74 569.35 256.49 569.21 250.23 C 566.12 251.12 563.31 252.73 560.23 253.64 M 574.63 257.99 C 575.29 261.66 579.54 261.87 582.45 262.48 C 580.53 264.23 578.41 265.74 576.10 266.92 C 576.51 267.49 577.32 268.64 577.73 269.21 C 583.16 267.94 587.46 262.62 586.92 256.95 C 587.00 253.65 584.51 250.20 580.94 250.48 C 576.87 249.97 573.43 254.07 574.63 257.99 M 550.05 258.53 C 550.03 259.55 550.02 260.57 550.02 261.59 C 552.32 261.59 554.64 261.59 556.95 261.59 C 556.95 260.57 556.94 259.55 556.95 258.53 C 554.65 258.53 552.34 258.53 550.05 258.53 Z" />
<path fill="#221f20" opacity="1.00" d=" M 819.65 118.75 C 820.97 113.21 829.41 112.19 832.09 117.16 C 834.30 120.66 831.93 124.58 829.46 127.18 C 830.41 135.33 830.93 143.68 833.29 151.57 C 833.84 149.16 833.90 146.67 834.46 144.26 C 838.63 142.76 837.82 148.01 838.17 150.52 C 838.69 150.83 839.74 151.44 840.27 151.74 C 841.87 146.22 843.52 140.70 844.62 135.05 C 843.34 133.01 841.77 130.03 844.19 128.15 C 846.35 125.42 850.72 127.03 851.57 130.12 C 852.58 132.88 849.42 134.53 847.69 136.02 C 846.37 141.87 844.50 147.67 844.22 153.69 C 846.65 152.16 847.42 149.23 849.36 147.25 C 850.31 147.25 851.23 147.49 852.10 147.95 C 851.96 150.62 850.15 152.74 848.93 154.99 C 849.45 155.41 850.48 156.23 851.00 156.64 C 857.13 150.84 863.59 145.35 869.26 139.08 C 869.00 135.41 869.68 130.41 874.05 129.57 C 879.15 127.91 884.37 133.62 882.25 138.52 C 881.04 142.52 876.31 143.32 872.72 142.93 C 866.35 148.76 860.19 154.89 854.67 161.54 C 857.20 160.53 859.21 158.42 861.88 157.74 C 862.37 158.29 863.35 159.37 863.84 159.91 C 861.73 161.83 859.34 163.42 857.33 165.45 C 862.00 164.06 866.34 161.75 870.62 159.47 C 873.26 158.39 872.84 154.18 875.96 153.75 C 879.86 152.82 882.70 158.11 880.01 160.94 C 878.39 163.17 875.57 162.03 873.40 161.65 C 869.04 163.71 864.70 165.84 860.69 168.52 C 862.57 167.99 864.44 167.38 866.30 166.76 C 867.05 167.60 867.79 168.43 868.54 169.28 C 866.78 170.81 864.53 171.41 862.36 172.06 C 871.67 171.09 881.01 170.23 890.20 168.42 C 892.11 165.31 895.59 161.94 899.56 163.61 C 905.25 165.19 905.78 174.00 900.29 176.20 C 896.96 178.38 893.58 175.33 890.87 173.57 C 880.97 174.77 871.03 176.22 861.36 178.65 C 864.27 179.26 867.96 178.11 869.95 180.99 C 868.08 184.03 864.28 182.79 861.34 183.41 C 866.82 186.11 872.70 187.86 878.52 189.66 C 880.53 189.01 882.89 187.29 884.79 189.16 C 888.47 191.16 886.16 197.71 881.99 196.90 C 878.93 196.95 878.64 192.61 875.77 192.11 C 870.65 190.42 865.48 188.70 860.17 187.71 C 861.96 190.13 865.55 190.21 867.13 192.78 C 866.57 193.54 866.00 194.29 865.41 195.02 C 863.12 194.09 860.79 193.22 858.41 192.55 C 858.88 193.91 859.72 195.09 861.02 195.77 C 867.42 199.87 873.70 204.21 880.46 207.73 C 884.18 206.63 889.64 206.27 891.22 210.76 C 893.93 215.73 888.23 222.05 882.98 220.11 C 879.37 219.16 878.66 215.18 877.79 212.11 C 870.16 207.24 862.34 202.59 854.16 198.70 C 855.53 200.89 857.52 202.63 858.77 204.91 C 855.99 210.03 853.37 201.00 850.06 203.10 C 850.95 208.43 854.32 213.00 856.42 217.93 C 857.32 221.40 863.00 220.93 862.65 224.96 C 863.04 228.85 857.40 230.96 855.12 227.82 C 853.36 226.13 854.41 223.70 854.89 221.71 C 852.64 217.10 850.19 212.60 847.68 208.13 C 847.09 206.96 846.13 206.04 845.10 205.26 C 845.69 207.88 847.00 210.34 847.15 213.06 C 846.36 213.14 844.78 213.30 843.99 213.37 C 842.89 211.34 842.10 209.16 841.05 207.11 C 840.73 207.57 840.09 208.48 839.77 208.94 C 839.67 216.31 840.92 223.59 841.61 230.91 C 841.51 233.84 844.75 234.76 846.13 236.89 C 848.59 239.96 846.64 244.72 843.30 246.24 C 839.15 248.70 833.07 244.94 833.57 240.08 C 833.51 237.46 835.45 235.54 836.93 233.61 C 836.40 225.28 834.93 217.05 833.68 208.81 C 833.05 208.81 831.77 208.80 831.14 208.80 C 830.61 211.20 831.41 214.43 828.91 215.91 C 823.97 214.87 829.73 208.06 824.68 207.26 C 823.19 212.19 821.79 217.15 820.70 222.19 C 820.34 224.53 823.04 226.71 821.80 229.06 C 820.48 232.30 814.88 232.33 813.85 228.85 C 812.29 226.06 815.22 223.85 817.30 222.55 C 818.79 217.13 820.16 211.64 820.86 206.06 C 820.57 205.93 819.99 205.67 819.70 205.54 C 818.16 207.36 817.61 210.24 815.25 211.21 C 814.67 210.80 813.52 209.99 812.95 209.58 C 814.07 207.20 815.94 205.01 815.91 202.23 C 811.14 205.62 807.08 209.88 802.77 213.81 C 800.12 216.47 797.12 218.84 794.89 221.88 C 794.47 225.13 794.71 229.49 791.12 231.04 C 786.49 233.62 780.10 229.21 781.24 223.92 C 781.61 219.22 787.05 217.64 791.02 218.25 C 798.10 211.80 804.85 204.91 811.03 197.59 C 808.24 197.94 804.97 201.92 802.64 199.04 C 803.25 196.24 806.48 195.38 808.23 193.37 C 803.82 194.82 799.79 197.18 795.64 199.21 C 794.46 201.18 793.84 204.68 790.90 204.34 C 787.59 204.95 784.87 200.43 786.96 197.83 C 788.34 195.13 791.62 195.90 793.97 196.59 C 797.95 194.61 801.91 192.55 805.81 190.39 C 805.57 189.46 805.10 187.61 804.87 186.68 C 797.54 187.08 790.22 187.63 782.91 188.11 C 780.00 188.19 778.79 191.30 776.55 192.65 C 773.59 194.86 769.24 193.06 767.62 190.05 C 764.96 186.12 768.17 179.98 772.93 180.01 C 775.83 179.61 778.02 181.72 780.07 183.42 C 784.33 183.31 788.62 183.18 792.84 182.42 C 796.84 181.70 801.04 181.99 804.89 180.49 C 802.14 179.90 799.02 180.40 796.77 178.40 C 797.12 177.78 797.81 176.55 798.15 175.93 C 800.42 175.93 802.69 175.96 804.98 175.77 C 799.31 174.15 793.43 173.15 787.56 172.67 C 785.69 173.86 783.49 175.33 781.25 174.13 C 780.12 172.95 779.40 171.48 778.61 170.08 C 779.71 168.43 780.61 166.16 782.88 165.91 C 785.99 165.21 786.95 169.61 789.85 169.68 C 795.24 170.27 800.58 171.70 806.05 171.34 C 803.79 170.14 801.33 169.40 799.18 168.02 C 799.29 167.39 799.51 166.14 799.62 165.51 C 802.45 164.81 805.03 166.89 807.80 167.22 C 806.17 165.09 803.82 163.73 801.62 162.30 C 796.23 158.82 790.83 155.35 785.18 152.30 C 781.91 153.72 777.42 153.99 775.26 150.60 C 772.19 147.02 774.60 141.16 778.94 140.00 C 781.15 139.62 783.79 139.74 785.39 141.56 C 787.57 143.75 786.73 147.80 789.81 149.24 C 796.66 153.56 803.77 157.48 810.93 161.28 C 809.03 159.30 806.35 157.67 806.56 154.53 C 809.73 154.53 811.94 156.87 814.43 158.47 C 812.15 153.18 809.68 147.98 807.05 142.86 C 806.08 139.83 801.56 140.29 800.94 137.04 C 800.09 132.93 806.00 130.18 808.62 133.42 C 810.44 135.06 809.40 137.56 808.89 139.54 C 811.40 144.90 814.31 150.07 817.30 155.18 C 818.41 154.53 819.53 153.88 820.66 153.24 C 820.48 150.70 817.29 146.83 820.94 145.57 C 823.87 146.14 823.30 149.84 824.29 152.02 C 825.15 151.72 826.01 151.42 826.89 151.12 C 826.36 143.49 825.74 135.86 824.51 128.32 C 822.16 125.71 817.86 122.88 819.65 118.75 Z" />
<path fill="#221f20" opacity="1.00" d=" M 986.56 255.95 C 984.62 249.35 990.18 241.87 997.07 241.82 C 1003.70 241.10 1010.08 247.45 1009.10 254.11 C 1008.54 258.05 1005.70 261.14 1003.13 263.98 C 1004.23 277.32 1006.61 290.51 1008.31 303.78 C 1008.97 303.80 1010.29 303.83 1010.95 303.85 C 1010.97 300.53 1010.97 297.22 1010.98 293.90 C 1012.82 292.65 1015.55 291.89 1016.94 294.25 C 1017.42 297.59 1017.13 300.98 1017.28 304.34 C 1018.73 304.61 1020.18 304.88 1021.67 305.14 C 1024.20 295.87 1027.03 286.67 1028.84 277.23 C 1026.39 274.28 1024.60 269.68 1027.49 266.40 C 1030.84 261.84 1039.09 263.40 1040.25 269.06 C 1041.83 273.57 1037.61 276.86 1034.08 278.61 C 1031.46 288.06 1029.60 297.69 1027.70 307.30 C 1028.58 307.59 1029.48 307.88 1030.39 308.17 C 1032.76 304.51 1033.97 299.76 1037.98 297.46 C 1039.41 298.67 1041.85 299.69 1041.01 302.03 C 1039.67 305.36 1037.59 308.32 1035.87 311.46 C 1037.10 312.27 1038.34 313.10 1039.57 313.96 C 1049.97 304.15 1060.87 294.80 1070.39 284.12 C 1069.81 279.10 1070.17 272.85 1074.87 269.81 C 1080.16 266.07 1088.29 268.01 1091.32 273.74 C 1094.26 278.45 1092.86 285.10 1088.50 288.44 C 1085.06 290.83 1080.64 291.12 1076.63 290.43 C 1068.42 297.29 1061.33 305.35 1053.78 312.90 C 1051.28 315.90 1047.73 318.31 1046.62 322.22 C 1050.02 320.55 1052.80 317.93 1056.09 316.09 C 1059.43 314.85 1061.87 320.13 1058.79 321.83 C 1056.41 324.22 1052.05 325.12 1051.55 328.90 C 1058.76 325.89 1065.77 322.37 1072.72 318.80 C 1076.93 317.42 1075.69 311.29 1079.89 309.80 C 1085.52 306.70 1092.46 313.74 1089.54 319.45 C 1087.65 324.24 1081.66 324.17 1077.71 322.22 C 1070.00 325.73 1062.58 329.87 1055.25 334.11 C 1058.84 333.42 1062.30 331.56 1066.02 331.83 C 1066.99 332.75 1067.72 333.89 1068.53 334.97 C 1066.71 338.77 1062.13 338.63 1058.68 339.86 C 1073.73 338.81 1088.78 337.00 1103.65 334.42 C 1106.37 334.28 1107.10 331.36 1108.72 329.67 C 1111.37 326.49 1115.68 324.20 1119.89 325.41 C 1125.15 326.56 1129.20 331.64 1128.95 337.06 C 1128.89 342.77 1123.95 348.33 1118.07 348.14 C 1113.67 348.39 1110.38 345.09 1107.00 342.83 C 1102.62 342.62 1098.31 343.56 1094.01 344.19 C 1082.46 346.09 1070.89 347.99 1059.46 350.42 C 1059.09 350.74 1058.36 351.37 1057.99 351.69 C 1061.40 352.11 1064.85 351.99 1068.29 351.94 C 1070.21 353.30 1071.29 356.51 1068.90 357.99 C 1065.13 358.86 1061.20 358.28 1057.39 358.78 C 1058.68 361.00 1061.27 361.48 1063.49 362.35 C 1071.02 365.01 1078.46 367.94 1086.20 369.98 C 1089.09 368.21 1093.02 366.56 1096.17 368.74 C 1100.08 371.08 1100.55 377.27 1097.17 380.25 C 1095.17 382.25 1091.98 382.57 1089.41 381.68 C 1086.85 380.36 1085.74 377.55 1084.48 375.14 C 1076.01 372.11 1067.37 369.55 1058.69 367.22 C 1057.39 366.66 1056.39 367.73 1055.40 368.33 C 1058.47 370.15 1062.03 371.00 1065.06 372.89 C 1067.36 374.62 1065.66 378.48 1062.94 378.48 C 1059.65 377.65 1056.63 376.05 1053.49 374.80 C 1053.19 375.50 1052.58 376.90 1052.28 377.60 C 1064.67 385.37 1076.54 394.09 1089.67 400.62 C 1094.46 398.40 1101.00 397.84 1104.84 402.13 C 1110.43 407.27 1108.66 417.65 1101.67 420.63 C 1096.36 423.58 1088.82 421.03 1086.79 415.20 C 1085.32 412.52 1086.09 408.60 1083.17 406.87 C 1074.64 401.17 1065.59 396.29 1056.69 391.22 C 1053.04 389.29 1049.61 386.90 1045.73 385.47 C 1045.78 389.14 1050.11 390.95 1052.18 393.66 C 1052.49 396.13 1051.04 399.06 1048.13 398.20 C 1045.13 396.58 1043.12 393.51 1040.57 391.27 C 1039.45 392.10 1038.34 392.92 1037.24 393.75 C 1041.70 403.23 1045.82 412.89 1051.06 421.98 C 1054.55 422.87 1059.16 424.60 1059.08 428.94 C 1059.67 431.85 1057.56 434.07 1055.78 436.03 C 1052.49 437.56 1048.39 437.13 1046.15 434.04 C 1043.58 431.23 1045.38 427.32 1045.89 424.09 C 1041.84 414.69 1036.38 405.96 1031.57 396.93 C 1031.09 397.26 1030.12 397.92 1029.64 398.25 C 1030.75 401.14 1032.20 403.94 1032.93 406.98 C 1033.16 409.56 1030.20 410.95 1028.03 410.03 C 1025.71 407.22 1024.97 403.50 1023.58 400.21 C 1022.39 400.58 1021.18 400.95 1020.01 401.32 C 1021.24 415.41 1022.04 429.57 1024.38 443.53 C 1028.32 446.20 1033.01 449.69 1033.00 454.96 C 1033.41 462.07 1025.94 468.24 1019.04 466.41 C 1014.49 465.50 1010.85 461.58 1010.04 457.06 C 1009.47 453.27 1011.29 449.57 1013.75 446.80 C 1014.58 445.64 1016.11 444.67 1015.70 443.03 C 1014.73 429.36 1012.37 415.84 1010.41 402.29 C 1008.90 402.22 1007.40 402.16 1005.93 402.12 C 1005.31 405.28 1005.12 408.50 1004.84 411.71 C 1003.83 414.19 1000.01 414.52 998.96 411.97 C 998.42 408.47 999.10 404.90 999.28 401.38 C 997.83 400.95 996.42 400.52 995.01 400.06 C 992.40 409.00 989.82 417.97 988.02 427.11 C 990.07 429.82 992.19 433.68 990.03 436.96 C 987.43 442.25 978.78 441.65 976.84 436.11 C 975.02 432.37 977.64 428.47 981.01 426.83 C 983.32 425.84 983.40 423.11 984.06 421.03 C 985.89 413.36 987.47 405.64 989.04 397.92 C 988.18 397.50 987.34 397.09 986.51 396.69 C 984.77 399.56 983.47 402.75 981.26 405.31 C 978.97 407.69 974.76 404.11 976.48 401.43 C 977.85 398.53 979.62 395.84 981.18 393.03 C 980.58 392.77 979.37 392.23 978.77 391.97 C 969.65 399.76 961.00 408.10 952.32 416.38 C 949.49 419.14 946.67 421.92 944.22 425.03 C 944.89 430.07 944.50 436.64 939.46 439.35 C 934.46 442.68 927.12 440.99 923.88 436.01 C 920.64 431.38 921.45 424.40 925.87 420.80 C 929.30 418.20 933.91 417.81 938.03 418.60 C 947.88 410.33 956.39 400.62 965.24 391.32 C 967.57 388.91 969.93 386.51 972.01 383.88 C 967.76 382.00 965.18 388.29 960.99 388.03 C 958.71 387.36 957.48 384.22 959.43 382.52 C 962.01 380.43 964.99 378.86 967.48 376.64 C 964.76 376.55 962.42 378.04 960.05 379.11 C 955.09 381.55 950.03 383.81 945.35 386.76 C 944.60 389.76 943.52 393.49 940.13 394.41 C 937.29 395.72 933.93 394.15 932.09 391.90 C 929.26 388.43 930.66 382.51 934.85 380.84 C 937.54 379.71 940.43 380.75 942.99 381.73 C 950.05 378.58 956.75 374.70 963.52 370.97 C 962.89 368.98 962.26 366.99 961.71 364.98 C 947.95 365.63 934.12 366.11 920.48 368.19 C 917.95 371.88 914.70 375.92 909.93 376.41 C 903.24 377.06 896.88 370.81 897.74 364.08 C 897.73 357.91 903.78 352.81 909.79 353.37 C 913.71 353.99 917.07 356.33 919.68 359.24 C 932.58 359.28 945.33 357.05 958.13 355.70 C 959.62 355.90 960.00 354.40 960.67 353.43 C 957.42 353.02 954.14 353.17 950.89 352.90 C 948.48 351.98 948.28 348.51 950.34 347.03 C 954.13 346.49 957.99 347.24 961.79 346.52 C 959.41 344.96 956.50 344.89 953.82 344.28 C 946.77 342.99 939.72 341.59 932.58 340.89 C 930.20 342.87 927.25 345.00 923.98 344.11 C 919.70 343.21 917.36 337.99 919.17 334.10 C 920.71 330.15 926.46 328.18 929.74 331.20 C 931.80 332.84 932.81 336.07 935.89 336.02 C 944.98 337.38 954.12 338.86 963.32 339.14 C 959.98 335.80 954.22 336.22 951.70 331.91 C 952.69 330.69 953.27 328.80 955.02 328.45 C 958.47 329.02 961.59 330.74 964.85 331.96 C 965.14 331.47 965.73 330.49 966.02 330.00 C 953.78 322.13 941.88 313.57 928.89 306.98 C 924.42 307.80 919.33 309.45 915.14 306.84 C 909.55 303.53 908.10 295.19 912.15 290.14 C 915.67 285.16 923.41 284.01 928.18 287.82 C 931.43 290.64 932.38 295.07 933.03 299.14 C 940.49 304.51 948.62 308.83 956.56 313.44 C 961.85 316.28 966.93 319.56 972.44 322.00 C 970.18 319.42 967.11 317.69 964.99 315.02 C 964.75 313.52 965.49 312.12 965.91 310.73 C 970.96 309.85 973.30 315.40 977.68 316.68 C 973.48 306.69 968.78 296.89 963.64 287.35 C 960.69 286.32 956.84 285.44 955.83 282.03 C 954.33 278.49 956.55 273.98 960.17 272.80 C 964.06 271.07 969.16 273.86 969.75 278.11 C 970.51 281.04 967.49 283.92 969.28 286.68 C 973.27 295.17 978.07 303.26 982.54 311.51 C 984.50 310.48 986.46 309.43 988.45 308.44 C 987.65 304.97 986.26 301.61 985.89 298.06 C 986.46 295.43 990.66 294.58 991.83 297.12 C 993.10 299.95 993.60 303.06 994.44 306.05 C 995.96 305.59 997.49 305.13 999.03 304.69 C 997.70 291.46 997.22 278.07 994.54 265.02 C 991.23 262.67 987.73 260.05 986.56 255.95 Z" />
<path fill="#221f20" opacity="1.00" d=" M 499.65 253.63 C 501.33 252.37 503.26 254.24 503.27 256.03 C 503.68 259.28 504.25 263.32 501.88 265.97 C 498.88 267.05 498.12 263.25 498.11 261.11 C 498.15 258.64 497.81 255.54 499.65 253.63 Z" />
<path fill="#221f20" opacity="1.00" d=" M 538.43 252.81 C 539.89 253.46 542.13 253.43 542.57 255.34 C 543.42 258.29 543.45 261.60 542.45 264.52 C 541.82 266.23 539.75 266.03 538.31 266.47 C 538.22 261.92 538.13 257.36 538.43 252.81 Z" />
<path fill="#221f20" opacity="1.00" d=" M 578.98 258.97 C 577.98 257.07 577.95 254.19 580.01 252.98 C 583.74 252.81 582.96 257.51 582.86 259.96 C 581.54 259.69 580.19 259.54 578.98 258.97 Z" />
<path fill="#221f20" opacity="1.00" d=" M 231.53 319.03 C 233.07 313.38 241.80 312.65 244.11 318.12 C 246.31 321.59 243.33 325.20 241.14 327.78 C 242.14 335.53 243.19 343.28 244.30 351.02 C 244.65 351.02 245.35 351.02 245.69 351.02 C 246.12 348.64 244.57 344.38 248.20 344.23 C 250.61 345.83 249.48 349.07 249.85 351.47 C 250.66 351.57 251.47 351.68 252.29 351.79 C 253.49 346.47 255.67 341.34 256.10 335.88 C 255.13 333.20 254.25 330.39 256.07 327.84 C 258.93 326.92 263.01 327.36 263.44 331.01 C 264.18 334.00 260.52 334.87 259.37 337.04 C 257.91 342.27 257.00 347.63 255.78 352.92 C 256.16 353.11 256.93 353.49 257.31 353.68 C 258.50 351.69 259.51 349.58 261.01 347.80 C 262.30 347.33 264.28 348.21 263.73 349.82 C 262.94 352.03 261.57 353.96 260.51 356.03 C 263.07 357.86 264.82 355.22 266.56 353.69 C 271.46 348.99 276.61 344.53 281.13 339.45 C 281.20 336.47 280.88 332.56 283.92 330.86 C 287.36 328.60 292.63 330.16 293.99 334.12 C 295.43 337.13 293.94 341.14 290.95 342.57 C 288.99 343.28 286.86 343.15 284.82 343.18 C 278.36 349.05 272.12 355.24 266.54 361.95 C 268.97 360.83 271.10 359.17 273.55 358.10 C 274.05 358.59 275.04 359.56 275.54 360.04 C 273.97 362.48 271.20 363.73 269.33 365.91 C 274.46 364.27 279.21 361.65 283.92 359.09 C 284.63 357.43 285.48 355.84 286.43 354.31 C 288.58 354.30 291.46 354.05 292.38 356.54 C 293.75 358.33 292.71 360.83 291.12 362.08 C 288.90 363.67 286.06 361.40 283.76 362.77 C 279.74 364.62 276.00 367.04 271.96 368.84 C 274.00 368.40 276.03 367.85 278.13 367.64 C 279.49 367.80 280.31 369.30 279.54 370.48 C 277.74 371.47 275.77 372.07 273.84 372.77 C 282.72 371.42 291.70 370.87 300.54 369.24 C 302.96 368.81 303.73 365.96 305.73 364.78 C 309.60 361.71 315.81 365.23 315.94 369.93 C 316.46 373.77 312.92 377.79 308.96 377.25 C 306.53 377.23 304.78 375.33 302.94 374.01 C 297.90 374.31 292.95 375.37 287.97 376.13 C 283.05 377.24 277.91 377.49 273.18 379.35 C 275.76 380.21 279.38 378.64 281.29 380.95 C 281.19 381.44 280.98 382.41 280.87 382.90 C 278.34 383.47 275.71 383.35 273.15 383.77 C 278.50 386.65 284.43 388.18 290.14 390.16 C 292.16 389.48 294.59 387.94 296.61 389.49 C 299.53 391.45 298.72 396.89 294.98 397.33 C 292.15 398.19 290.56 395.27 289.45 393.23 C 283.80 391.28 278.10 389.39 272.22 388.27 C 273.69 390.53 276.55 390.85 278.58 392.40 C 278.80 393.65 278.52 394.86 277.12 395.23 C 274.64 394.80 272.39 392.98 269.78 393.74 C 276.76 399.24 284.44 403.86 292.22 408.13 C 295.79 407.10 300.53 406.58 302.65 410.44 C 305.82 414.91 301.45 421.75 296.04 420.79 C 291.88 420.67 290.30 416.25 289.79 412.81 C 282.14 407.78 274.23 402.95 265.84 399.29 C 267.34 401.23 269.16 402.92 270.53 404.97 C 270.24 406.39 269.39 407.08 267.96 407.02 C 266.14 405.72 264.62 404.05 262.97 402.57 C 262.66 403.59 261.35 404.59 262.19 405.70 C 264.25 410.32 266.40 414.93 268.80 419.39 C 270.03 421.93 274.46 421.68 274.41 425.05 C 274.93 428.59 270.74 430.90 267.84 429.14 C 265.22 427.72 266.20 424.37 266.65 422.05 C 263.77 416.45 261.00 410.76 257.45 405.55 C 257.22 408.12 258.40 410.46 259.30 412.79 C 258.30 413.38 257.32 414.05 256.15 414.27 C 254.96 412.42 254.23 410.34 253.42 408.32 C 252.90 408.36 251.86 408.46 251.34 408.51 C 251.64 416.07 252.61 423.58 253.34 431.10 C 253.55 434.71 257.93 435.83 258.87 439.13 C 259.95 443.16 256.24 447.74 252.02 447.31 C 248.19 447.58 244.74 443.72 245.37 439.95 C 245.61 437.64 247.45 436.00 248.57 434.09 C 248.46 425.77 246.64 417.58 245.48 409.37 C 244.59 409.34 243.70 409.31 242.82 409.28 C 242.60 411.45 242.54 413.67 241.93 415.79 C 241.21 415.78 239.78 415.78 239.06 415.78 C 237.93 413.58 239.04 411.06 239.07 408.75 C 238.17 408.54 237.28 408.33 236.39 408.13 C 234.77 413.25 233.51 418.48 232.22 423.68 C 233.49 425.75 234.93 428.81 232.72 430.78 C 230.65 433.30 226.23 432.06 225.54 428.97 C 224.49 426.77 226.48 425.04 227.98 423.77 C 230.13 422.00 230.13 418.96 230.80 416.48 C 231.41 412.80 233.02 409.07 232.11 405.33 C 230.62 407.31 229.46 409.53 227.96 411.52 C 226.84 411.18 225.75 410.78 224.69 410.32 C 225.80 407.96 227.37 405.77 227.95 403.18 C 226.37 403.10 225.33 404.34 224.26 405.28 C 218.26 410.89 212.13 416.38 206.46 422.33 C 206.61 425.79 206.38 430.15 202.68 431.71 C 197.30 434.54 190.55 427.88 193.56 422.53 C 195.16 418.87 199.45 418.44 202.93 418.72 C 208.49 413.68 213.60 408.18 218.80 402.79 C 220.34 401.21 221.75 399.49 222.88 397.59 C 220.12 398.31 217.85 401.84 214.87 400.33 C 213.98 396.78 218.50 395.94 220.34 393.73 C 215.73 395.31 211.43 397.61 207.16 399.92 C 206.43 401.46 206.07 403.45 204.43 404.34 C 202.76 405.84 200.72 404.24 198.96 403.80 C 198.43 401.88 197.43 399.69 199.00 397.98 C 200.46 395.44 203.62 396.54 205.90 396.95 C 209.91 395.14 213.70 392.92 217.59 390.88 C 217.26 389.66 216.94 388.44 216.62 387.22 C 208.51 387.64 200.37 387.89 192.33 389.12 C 190.38 391.32 188.29 394.34 184.93 393.95 C 180.60 393.97 177.31 388.99 178.94 385.03 C 179.68 382.31 182.32 380.59 185.00 380.20 C 187.81 380.39 190.03 382.29 192.03 384.09 C 200.26 383.21 208.71 383.12 216.71 380.83 C 214.25 380.27 211.72 380.22 209.27 379.65 C 208.06 374.97 214.21 377.05 216.80 376.35 C 211.68 374.52 206.21 374.06 200.89 373.15 C 198.24 372.70 195.99 376.44 193.37 374.60 C 189.53 373.03 190.75 366.29 195.05 366.42 C 197.33 366.07 198.48 368.31 199.80 369.72 C 205.73 371.06 211.83 371.48 217.87 372.11 C 215.74 370.73 213.35 369.87 211.14 368.65 C 211.16 368.05 211.21 366.85 211.23 366.25 C 214.07 365.14 216.89 367.38 219.75 367.57 C 213.75 362.30 206.54 358.55 199.82 354.26 C 196.44 351.52 191.81 355.40 188.43 352.52 C 184.23 349.59 185.23 342.30 190.17 340.78 C 192.44 339.39 195.18 340.45 197.11 341.91 C 199.39 344.07 198.39 348.20 201.50 349.63 C 208.58 354.08 215.91 358.12 223.27 362.06 C 221.41 360.04 216.10 357.45 220.00 354.67 C 222.26 355.84 224.16 357.56 226.27 358.97 C 223.72 353.07 220.91 347.29 217.96 341.59 C 216.14 340.70 213.70 340.13 212.95 338.00 C 211.70 334.40 216.56 330.57 219.61 333.17 C 222.28 334.49 221.33 337.75 220.79 340.01 C 223.13 345.41 226.19 350.45 229.05 355.59 C 230.17 354.96 231.30 354.36 232.43 353.74 C 231.89 351.61 231.34 349.50 230.74 347.40 C 231.35 347.00 232.55 346.19 233.16 345.79 C 235.25 347.25 235.24 350.01 236.12 352.19 C 236.80 352.04 238.16 351.74 238.84 351.59 C 237.82 343.86 237.68 336.04 236.28 328.35 C 233.40 326.26 229.81 322.99 231.53 319.03 Z" />
<path fill="#221f20" opacity="1.00" d=" M 759.16 391.74 C 757.11 389.81 759.60 386.27 762.13 387.05 C 763.69 387.03 764.31 388.87 765.37 389.76 C 764.59 391.01 763.82 392.26 763.04 393.51 C 763.74 397.18 763.95 400.94 764.81 404.59 C 764.96 403.74 765.27 402.03 765.43 401.18 L 766.61 400.96 C 767.02 401.88 767.83 403.73 768.24 404.65 C 768.49 403.70 769.00 401.81 769.26 400.86 C 769.81 402.27 770.22 403.72 770.53 405.21 C 771.51 404.11 772.47 403.01 773.57 402.02 C 773.37 403.36 772.97 406.04 772.77 407.38 C 775.87 404.68 778.91 401.91 781.77 398.96 C 781.79 396.56 782.75 394.57 785.03 393.62 C 786.49 394.75 788.69 395.69 788.29 397.96 C 787.87 400.50 784.93 400.41 783.02 400.99 C 780.35 403.62 777.75 406.31 775.12 408.97 C 776.25 408.62 777.39 408.27 778.56 407.95 C 778.73 408.39 779.07 409.28 779.25 409.72 C 781.67 409.94 783.42 407.31 784.81 405.64 C 785.73 405.92 786.63 406.21 787.53 406.60 C 787.41 407.62 787.07 408.59 786.74 409.55 C 784.11 409.27 781.73 410.40 779.31 411.16 C 780.20 412.04 781.01 412.99 781.79 414.01 C 785.00 413.64 788.19 413.09 791.40 412.64 C 792.74 411.68 794.00 409.50 795.93 410.17 C 798.33 410.56 799.08 413.87 797.53 415.57 C 795.68 417.77 793.24 415.17 791.03 415.12 C 786.67 415.41 782.44 416.64 778.10 417.11 C 779.71 417.54 781.31 418.04 782.89 418.62 C 781.18 418.98 779.53 419.31 777.84 419.62 C 781.22 420.79 784.57 422.44 788.24 422.22 C 790.55 421.60 790.97 425.42 788.83 425.77 C 787.57 426.38 786.72 424.75 785.69 424.33 C 783.33 422.65 780.34 422.33 777.62 421.56 C 778.98 422.56 780.35 423.48 781.72 424.53 C 779.92 424.55 778.15 424.37 776.37 424.24 C 780.99 426.98 785.22 431.44 791.03 430.88 C 794.52 432.85 791.68 438.16 788.11 436.89 C 786.56 435.31 785.96 432.90 783.97 431.79 C 780.95 429.90 777.77 428.28 774.67 426.56 C 775.62 427.92 776.61 429.26 777.52 430.67 C 775.84 430.01 774.24 429.23 772.62 428.45 C 773.59 431.19 774.86 433.81 776.17 436.41 C 777.98 437.25 779.85 439.01 778.03 440.91 C 775.22 441.86 774.33 439.24 774.84 437.01 C 773.59 434.48 772.22 432.03 770.81 429.60 C 770.97 431.21 771.17 432.81 771.22 434.44 C 770.06 433.09 768.94 431.74 767.85 430.36 C 767.87 434.49 768.38 438.61 769.20 442.66 C 770.08 443.72 771.00 444.77 771.74 445.97 C 771.49 448.49 768.41 450.60 766.28 448.67 C 763.93 447.28 765.54 444.44 766.64 442.78 C 766.32 438.80 765.66 434.88 764.90 430.97 C 764.38 432.03 763.33 434.16 762.80 435.22 C 762.19 433.59 761.69 431.93 761.30 430.24 C 760.25 432.81 759.55 435.52 758.73 438.17 C 759.09 438.76 759.82 439.95 760.19 440.54 C 759.18 441.14 758.33 442.49 756.99 442.06 C 755.49 442.27 755.61 440.08 756.24 439.27 C 758.15 436.41 758.68 432.98 759.18 429.65 C 758.05 430.84 756.94 432.03 755.79 433.19 C 756.04 431.57 756.34 429.95 756.65 428.34 C 753.37 431.24 750.06 434.12 747.10 437.35 C 746.60 439.09 746.55 442.34 744.06 442.17 C 741.40 442.96 739.10 439.31 740.86 437.27 C 741.82 435.72 743.78 435.98 745.34 435.66 C 748.48 432.67 751.50 429.54 754.46 426.37 C 752.99 426.79 751.53 427.19 750.07 427.57 C 750.81 426.67 752.29 424.85 753.03 423.94 C 750.32 425.40 747.31 426.60 745.61 429.34 C 744.63 429.26 743.60 429.15 742.66 429.08 C 742.87 427.89 743.17 426.73 743.56 425.60 C 744.68 425.53 745.81 425.52 746.95 425.56 C 749.04 424.48 751.15 423.37 752.80 421.65 C 748.68 420.91 744.51 421.62 740.38 421.90 C 739.29 422.66 738.56 424.25 737.08 424.24 C 734.07 425.06 732.33 420.46 734.63 418.74 C 736.22 416.72 738.53 418.67 740.16 419.55 C 743.95 419.16 747.76 418.96 751.57 418.69 C 750.12 418.13 748.67 417.56 747.24 417.01 C 748.54 416.42 749.85 415.89 751.20 415.37 C 748.72 415.23 746.27 415.00 743.82 414.70 C 742.48 414.60 740.09 416.26 739.59 414.29 C 738.51 413.03 740.50 411.99 741.06 411.02 C 744.05 413.62 748.09 413.74 751.83 414.12 C 750.91 413.39 749.07 411.93 748.15 411.20 C 749.42 411.34 751.95 411.60 753.21 411.74 C 748.60 409.34 744.64 404.71 739.06 405.07 C 736.39 404.80 736.14 400.60 738.57 399.59 C 740.99 397.74 743.47 400.60 743.60 403.01 C 747.01 405.22 750.61 407.09 754.10 409.17 C 753.52 408.39 752.35 406.83 751.77 406.05 C 753.40 406.26 754.83 407.06 756.22 407.90 C 754.86 405.48 753.92 402.82 752.34 400.54 C 751.33 399.13 748.93 398.21 749.90 396.14 C 750.89 395.45 752.08 395.35 753.18 395.83 C 753.52 399.64 755.16 403.12 757.46 406.15 C 759.88 406.33 757.99 402.61 758.70 401.24 C 759.75 402.62 760.77 404.05 761.85 405.43 C 761.18 400.88 762.45 395.45 759.16 391.74 M 777.70 410.36 C 777.90 410.66 777.90 410.66 777.70 410.36 Z" />
<path fill="#221f20" opacity="1.00" d=" M 769.46 394.21 C 770.76 392.81 773.42 392.56 773.62 394.97 C 772.34 397.21 770.91 399.40 770.69 402.06 C 769.69 399.56 769.93 396.82 769.46 394.21 Z" />
</g>
<g id="#c6c5c6ff">
<path fill="#c6c5c6" opacity="1.00" d=" M 777.70 410.36 C 777.90 410.66 777.90 410.66 777.70 410.36 Z" />
</g>
</svg>
