<svg xmlns="http://www.w3.org/2000/svg" width="512" height="512" viewBox="0 0 512 512" version="1.1">
	<path d="M 242.398 1.889 C 234.173 4.244, 227.600 8.249, 220.996 14.931 C 211.594 24.444, 207 35.800, 207 49.529 C 207 63.132, 211.344 72.918, 222.934 85.429 C 232.364 95.607, 234 99.692, 234 113.051 L 234 121.740 227.774 122.965 C 213.730 125.728, 196.087 132.984, 183 141.380 L 177.500 144.909 170.177 137.704 C 166.150 133.742, 161.650 128.475, 160.177 126 C 157.665 121.777, 157.522 120.884, 157.859 111.500 C 158.891 82.817, 158.559 75.908, 155.777 68.165 C 151.871 57.295, 147.422 50.423, 138.500 41.485 C 124.888 27.848, 109.780 21.593, 90.500 21.613 C 77.439 21.627, 69.867 23.424, 58.926 29.106 C 41.604 38.102, 28.507 54.284, 23.399 73 C 20.720 82.815, 20.947 99.356, 23.893 109 C 30.787 131.568, 47.048 148.520, 68.569 155.573 C 76.518 158.178, 78.820 158.492, 89.500 158.427 C 96.100 158.388, 105.560 157.994, 110.522 157.552 C 122.656 156.472, 126.783 158.219, 137.461 168.961 L 145.286 176.832 141.276 183.180 C 132.875 196.483, 128.279 207.217, 124.013 223.500 L 121.393 233.500 111.667 233.375 C 98.629 233.206, 94.629 231.565, 84.760 222.336 C 73.102 211.434, 62.916 207, 49.529 207 C 35.800 207, 24.444 211.594, 14.931 220.996 C 5.120 230.693, 0 242.696, 0 256 C 0 269.304, 5.120 281.307, 14.931 291.004 C 24.444 300.406, 35.800 305, 49.529 305 C 62.916 305, 73.102 300.566, 84.760 289.664 C 94.629 280.435, 98.629 278.794, 111.667 278.625 L 121.393 278.500 124.013 288.500 C 128.279 304.785, 132.875 315.517, 141.279 328.824 L 145.291 335.177 133.895 346.657 C 127.628 352.972, 120.700 359.190, 118.500 360.476 C 116.300 361.762, 111.020 363.520, 106.768 364.381 C 102.515 365.243, 96.718 367.122, 93.887 368.557 C 78.837 376.183, 69.854 394.230, 72.894 410.729 C 76.946 432.721, 97.631 447.708, 118.835 444.015 C 128.323 442.363, 135.210 438.599, 141.972 431.371 C 149.215 423.628, 151.951 416.903, 152.930 404.436 C 153.885 392.266, 155.866 388.566, 167.723 376.793 L 177.500 367.087 183 370.618 C 196.073 379.010, 213.726 386.272, 227.774 389.035 L 234 390.260 234 398.949 C 234 410.335, 232.141 416.283, 226.527 422.860 C 222.035 428.122, 220.937 431.773, 222.908 434.885 C 223.495 435.813, 222.841 437.758, 220.925 440.780 C 219.352 443.260, 217.339 447.475, 216.452 450.145 C 215.501 453.009, 214.238 455, 213.374 455 C 212.568 455, 210.805 456.105, 209.455 457.455 C 207.525 459.384, 207 460.944, 207 464.744 C 207 476.155, 212.204 488.174, 220.996 497.069 C 230.693 506.880, 242.696 512, 256 512 C 269.304 512, 281.307 506.880, 291.004 497.069 C 300.406 487.556, 305 476.200, 305 462.471 C 305 449.076, 300.691 439.189, 289.578 427.085 C 280.576 417.280, 279 413.154, 279 399.389 L 279 390.142 284.750 388.958 C 298.871 386.050, 315.339 379.238, 328.802 370.735 L 335.167 366.716 342.623 374.108 C 346.940 378.387, 351.161 383.702, 352.647 386.729 C 354.989 391.500, 355.160 392.680, 354.593 400.229 C 354.252 404.778, 353.707 413.761, 353.383 420.192 C 352.799 431.757, 352.820 431.911, 355.351 434.442 C 356.758 435.849, 358.795 437, 359.877 437 C 361.269 437, 362.200 438.098, 363.058 440.750 C 363.725 442.813, 365.105 446.160, 366.124 448.188 C 367.862 451.646, 367.875 452.056, 366.332 454.745 C 363.738 459.264, 365.268 462.579, 373.825 470.985 C 387.174 484.098, 402.922 490.428, 422 490.351 C 441.548 490.272, 457.245 483.675, 470.742 469.864 C 484.291 456, 490.336 441.132, 490.407 421.500 C 490.476 402.336, 484.178 387.138, 470.515 373.500 C 461.577 364.578, 454.705 360.129, 443.835 356.223 C 437.340 353.890, 435.011 353.587, 423.500 353.581 C 416.350 353.576, 407.083 353.954, 402.907 354.419 C 391.242 355.719, 386.791 353.860, 375.800 343.101 L 367.014 334.500 370.580 329 C 378.630 316.587, 383.749 304.676, 387.987 288.500 L 390.607 278.500 400.333 278.625 C 413.091 278.790, 417.634 280.548, 426 288.555 C 429.575 291.977, 434.750 296.193, 437.500 297.924 C 455.179 309.053, 479.485 306.888, 495.541 292.755 C 501.454 287.550, 507.702 277.904, 509.553 271.122 C 510.397 268.030, 511.518 264.719, 512.044 263.764 C 513.225 261.618, 513.324 246.682, 512.151 247.406 C 511.685 247.695, 510.770 245.548, 510.118 242.636 C 508.520 235.498, 502.600 225.759, 496.434 220.127 C 486.816 211.341, 475.584 207, 462.471 207 C 449.067 207, 438.384 211.656, 427.077 222.426 C 417.521 231.529, 413.424 233.206, 400.333 233.375 L 390.607 233.500 387.987 223.500 C 383.767 207.392, 378.714 195.612, 370.615 183 L 367.083 177.500 380.292 164.181 C 387.556 156.856, 394.682 150.235, 396.127 149.469 C 397.572 148.703, 402.297 147.139, 406.627 145.994 C 416.778 143.309, 423.803 138.545, 428.929 130.869 C 440.441 113.630, 434.187 90.068, 415.708 81.057 C 403.982 75.338, 391.923 76.018, 381.110 83.007 C 373.132 88.164, 368.703 94.879, 365.945 106 C 364.786 110.675, 362.996 115.850, 361.968 117.500 C 360.940 119.150, 354.492 126.078, 347.639 132.896 L 335.178 145.292 328.808 141.269 C 315.339 132.762, 298.874 125.951, 284.750 123.042 L 279 121.858 279 112.611 C 279 100.634, 280.778 94.812, 286.473 88.140 C 291.292 82.494, 291.628 81.472, 289.902 77.683 C 288.984 75.669, 289.222 74.609, 291.346 71.244 C 292.744 69.029, 294.642 64.913, 295.563 62.097 C 296.827 58.233, 297.826 56.831, 299.642 56.375 C 300.965 56.043, 302.711 54.823, 303.523 53.663 C 306.594 49.279, 304.472 35.405, 299.226 25.575 C 295.752 19.064, 285.936 9.248, 279.425 5.774 C 268.575 -0.016, 254.288 -1.515, 242.398 1.889 M 217.457 205.863 C 207.826 211.736, 205.260 222.750, 211.371 231.984 C 214.456 236.647, 219.347 239, 225.951 239 C 232.053 239, 235.602 237.356, 239.784 232.593 C 247.074 224.290, 243.605 209.658, 233.329 205.364 C 228.651 203.410, 221.091 203.647, 217.457 205.863 M 289.984 248.852 C 276.100 256.230, 281.349 276.983, 297.102 276.996 C 302.666 277.001, 307.465 274.065, 310.148 269.016 C 314.037 261.697, 311.031 252.646, 303.500 249 C 298.354 246.509, 294.473 246.466, 289.984 248.852 M 0.349 256 C 0.349 260.675, 0.522 262.587, 0.732 260.250 C 0.943 257.913, 0.943 254.088, 0.732 251.750 C 0.522 249.412, 0.349 251.325, 0.349 256 M 227.110 289.396 C 222.328 292.046, 220.674 298.536, 223.425 303.855 C 227.404 311.550, 239.540 309.948, 241.895 301.417 C 244.360 292.489, 235.105 284.964, 227.110 289.396" stroke="none" fill="black" fill-rule="evenodd"/>
</svg>