<?xml version="1.0" encoding="UTF-8" ?>
<!DOCTYPE svg PUBLIC "-//W3C//DTD SVG 1.1//EN" "http://www.w3.org/Graphics/SVG/1.1/DTD/svg11.dtd">
<svg width="400pt" height="231pt" viewBox="0 0 400 231" version="1.1" xmlns="http://www.w3.org/2000/svg">
<g id="#ffffffff">
<path fill="#ffffff" opacity="1.00" d=" M 207.93 47.59 C 211.18 45.26 212.63 39.82 217.37 40.55 C 215.75 42.65 213.71 44.49 212.58 46.92 C 212.44 48.80 212.63 50.68 212.72 52.55 C 215.82 51.34 219.06 50.38 222.44 50.51 C 220.87 53.01 217.81 52.46 215.30 52.68 C 215.54 54.50 216.53 56.74 214.27 57.72 C 214.23 56.71 214.14 54.70 214.10 53.69 C 212.50 55.86 211.86 58.48 211.48 61.10 C 208.00 62.28 204.35 62.76 200.69 62.93 C 200.64 62.00 198.83 59.11 200.74 60.29 C 200.90 60.58 201.22 61.18 201.38 61.48 C 202.47 61.23 203.57 60.97 204.66 60.72 C 205.65 59.64 206.65 58.58 207.67 57.53 C 207.82 56.53 207.97 55.54 208.12 54.55 C 208.77 53.77 209.38 52.97 209.96 52.14 C 209.38 50.58 208.64 49.10 207.93 47.59 M 209.08 56.85 C 210.50 57.13 210.98 56.60 210.54 55.24 C 209.11 54.95 208.62 55.49 209.08 56.85 Z" />
<path fill="#ffffff" opacity="1.00" d=" M 119.47 70.65 C 121.87 69.89 124.31 69.19 126.44 67.80 C 124.94 71.58 123.20 75.96 118.75 76.95 C 118.47 75.15 119.26 73.01 118.13 71.42 C 115.56 71.56 113.87 74.27 111.59 75.35 C 113.15 72.60 115.72 70.69 118.40 69.10 C 118.91 71.16 119.91 72.94 122.19 73.26 C 121.51 72.61 120.15 71.30 119.47 70.65 Z" />
<path fill="#ffffff" opacity="1.00" d=" M 220.32 85.98 C 219.71 82.13 221.91 78.91 224.26 76.14 C 225.03 77.71 225.67 79.37 226.70 80.80 C 228.05 79.60 228.58 77.88 228.98 76.18 L 230.28 76.31 C 229.28 80.37 233.90 81.59 235.87 84.24 C 231.73 85.10 227.41 81.92 223.56 84.33 C 221.52 85.32 219.69 86.70 218.13 88.33 C 217.40 90.48 219.96 91.67 221.46 92.57 C 223.93 93.08 226.49 92.69 228.96 92.31 C 228.70 92.72 228.17 93.55 227.91 93.97 C 227.75 95.89 227.53 97.80 227.26 99.71 C 224.85 100.02 222.46 100.56 220.03 100.65 C 217.24 100.04 214.74 98.51 212.02 97.65 C 211.67 99.32 211.32 100.98 210.96 102.65 C 207.93 99.71 204.48 97.29 200.09 97.20 C 200.58 95.04 201.69 93.09 202.96 91.31 C 203.60 91.66 204.88 92.36 205.52 92.71 C 206.25 91.37 206.99 90.04 207.75 88.71 C 207.52 88.22 207.05 87.24 206.81 86.75 C 207.44 86.80 208.70 86.88 209.33 86.92 C 206.71 84.77 204.24 82.45 202.06 79.85 C 202.29 79.30 202.76 78.19 203.00 77.63 C 205.31 80.21 207.87 82.58 210.89 84.32 C 210.76 84.72 210.52 85.52 210.40 85.92 C 211.39 88.07 212.26 90.26 213.12 92.46 C 214.14 91.98 215.15 91.48 216.14 90.95 C 215.62 89.47 214.96 88.04 214.36 86.59 C 216.35 86.40 218.34 86.29 220.32 85.98 M 214.13 93.78 C 215.39 95.83 217.56 95.83 219.48 94.88 C 217.71 94.44 215.92 94.07 214.13 93.78 M 224.51 95.75 C 225.43 96.69 227.42 95.35 226.68 94.17 C 225.76 93.23 223.77 94.57 224.51 95.75 Z" />
<path fill="#ffffff" opacity="1.00" d=" M 224.70 103.45 C 229.50 106.70 231.05 112.47 233.69 117.27 C 236.40 120.15 236.30 124.22 236.94 127.87 C 234.33 125.11 232.40 121.83 230.76 118.43 C 229.52 113.15 227.05 108.29 224.70 103.45 Z" />
</g>
<g id="#61af9aff">
<path fill="#61af9a" opacity="1.00" d=" M 146.56 0.00 L 154.73 0.00 C 158.87 1.57 163.30 1.98 167.65 2.66 C 165.55 4.56 163.36 6.35 161.15 8.12 C 165.49 6.18 170.05 4.84 174.69 3.82 C 175.03 4.38 175.70 5.52 176.04 6.09 C 173.88 7.49 171.43 8.66 169.84 10.76 C 168.61 12.91 168.04 15.35 167.27 17.69 C 167.66 19.93 168.41 22.46 166.59 24.31 C 164.78 26.09 164.72 28.39 165.51 30.70 C 162.47 33.44 158.92 35.79 154.74 36.20 C 152.07 38.82 148.66 40.43 145.73 42.71 C 143.22 45.55 142.80 49.52 141.51 52.96 C 135.41 50.19 130.45 44.06 130.50 37.20 C 131.78 35.97 133.25 34.96 134.67 33.91 C 134.21 32.14 133.73 30.36 133.26 28.59 C 131.73 28.95 130.21 29.32 128.70 29.69 C 128.31 26.49 128.12 22.70 125.16 20.70 C 122.46 18.24 118.65 18.86 115.41 19.57 C 113.39 17.44 111.30 15.37 109.16 13.36 C 112.45 12.60 115.72 11.73 118.84 10.42 C 117.35 9.89 115.86 9.37 114.37 8.84 C 116.57 8.09 118.79 7.36 120.99 6.62 C 121.95 5.84 122.63 4.55 123.94 4.30 C 128.16 3.29 132.50 2.84 136.84 2.71 C 140.12 1.97 143.40 1.17 146.56 0.00 Z" />
<path fill="#61af9a" opacity="1.00" d=" M 253.48 0.00 L 254.99 0.00 C 252.49 2.34 250.61 5.25 250.70 8.80 C 250.36 7.61 250.02 6.42 249.69 5.23 C 249.21 4.87 248.24 4.16 247.76 3.80 C 249.63 2.49 251.52 1.20 253.48 0.00 Z" />
<path fill="#61af9a" opacity="1.00" d=" M 260.14 0.00 L 261.41 0.00 C 261.05 1.74 260.70 3.48 260.35 5.22 C 259.74 4.66 258.53 3.53 257.92 2.97 C 257.89 4.01 257.84 6.09 257.82 7.13 C 256.82 7.00 254.82 6.75 253.82 6.62 C 254.41 7.44 255.60 9.07 256.20 9.88 C 254.82 8.79 252.98 8.00 252.18 6.36 C 252.82 6.08 254.11 5.51 254.75 5.23 C 255.24 4.33 255.73 3.43 256.22 2.54 C 257.52 1.69 258.81 0.83 260.14 0.00 Z" />
<path fill="#61af9a" opacity="1.00" d=" M 89.22 4.35 C 96.58 4.14 103.62 1.52 111.00 1.55 C 114.34 1.50 117.66 1.92 120.97 2.36 C 120.97 2.90 120.99 3.97 120.99 4.51 C 118.40 4.47 115.85 5.02 114.44 7.41 C 112.02 9.04 109.53 10.59 106.79 11.62 C 106.75 12.19 106.69 13.31 106.66 13.87 C 106.05 14.00 104.83 14.25 104.21 14.37 C 103.89 14.79 103.23 15.62 102.91 16.03 C 103.20 16.59 103.79 17.70 104.08 18.26 C 99.75 18.50 95.41 18.42 91.08 18.52 C 91.47 18.07 92.24 17.16 92.63 16.71 C 92.01 14.62 93.47 13.29 94.87 12.03 C 94.31 11.45 93.20 10.30 92.65 9.72 C 93.89 9.39 95.14 9.07 96.39 8.76 C 93.86 7.95 91.03 7.57 88.95 5.77 C 89.02 5.41 89.15 4.71 89.22 4.35 Z" />
<path fill="#61af9a" opacity="1.00" d=" M 290.23 7.88 C 287.83 5.17 291.51 3.10 293.69 2.12 C 294.43 3.28 295.16 4.44 295.90 5.60 C 294.21 6.86 292.37 7.89 290.46 8.77 L 291.00 9.46 C 293.73 7.60 296.87 6.55 300.05 7.99 C 299.30 10.15 298.44 12.30 296.73 13.88 C 294.48 11.64 291.77 9.93 288.66 9.20 C 289.05 8.87 289.84 8.21 290.23 7.88 Z" />
<path fill="#61af9a" opacity="1.00" d=" M 206.06 5.61 C 207.36 4.76 208.62 3.82 210.03 3.15 C 211.81 3.70 213.38 4.74 214.99 5.66 C 213.51 7.38 212.04 9.72 209.36 8.82 C 210.37 11.44 214.47 15.68 209.93 17.17 C 209.62 16.10 209.01 13.97 208.70 12.91 C 207.52 14.89 207.60 18.22 205.21 19.13 C 203.72 17.07 203.37 14.53 203.35 12.04 C 202.79 11.52 201.66 10.48 201.10 9.95 C 201.69 7.90 202.33 5.85 203.00 3.82 C 204.02 4.41 205.04 5.01 206.06 5.61 Z" />
<path fill="#61af9a" opacity="1.00" d=" M 243.19 4.75 C 244.06 4.13 244.93 3.51 245.81 2.89 C 245.79 4.12 245.78 5.36 245.77 6.59 C 244.26 7.22 242.75 7.87 241.25 8.52 C 241.01 8.00 240.55 6.94 240.31 6.42 C 238.19 6.90 236.12 6.68 234.39 5.29 C 237.20 4.12 240.27 3.65 243.19 4.75 Z" />
<path fill="#61af9a" opacity="1.00" d=" M 85.17 10.13 C 85.74 8.50 86.32 6.87 86.92 5.24 C 89.56 7.39 92.18 9.68 93.52 12.92 C 91.52 13.72 89.47 14.40 87.31 14.54 C 86.69 13.02 86.01 11.54 85.17 10.13 Z" />
<path fill="#61af9a" opacity="1.00" d=" M 247.13 6.53 C 250.48 6.55 245.70 9.58 247.13 6.53 Z" />
<path fill="#61af9a" opacity="1.00" d=" M 244.14 7.93 C 245.78 7.37 246.35 7.90 245.87 9.52 C 244.23 10.07 243.66 9.54 244.14 7.93 Z" />
<path fill="#61af9a" opacity="1.00" d=" M 79.47 9.03 C 81.08 8.52 81.63 9.09 81.11 10.73 C 79.50 11.23 78.95 10.66 79.47 9.03 Z" />
<path fill="#61af9a" opacity="1.00" d=" M 301.24 8.56 C 302.78 9.76 304.19 11.12 305.36 12.70 C 303.04 13.40 300.70 14.00 298.36 14.59 C 299.32 12.58 300.27 10.57 301.24 8.56 Z" />
<path fill="#61af9a" opacity="1.00" d=" M 73.94 13.79 C 73.78 12.41 73.63 11.03 73.67 9.63 C 76.37 11.21 79.33 12.17 82.40 12.73 C 84.82 12.99 85.76 15.47 87.08 17.15 C 87.82 17.15 89.28 17.17 90.02 17.18 C 90.43 17.98 90.85 18.79 91.27 19.60 C 94.87 20.48 98.52 19.76 102.15 19.64 C 101.68 20.75 101.20 21.85 100.72 22.96 C 96.79 22.75 92.86 22.55 88.93 22.34 C 88.16 21.01 87.40 19.68 86.60 18.37 C 85.89 18.87 85.19 19.38 84.49 19.90 C 85.27 20.51 86.82 21.72 87.60 22.33 C 86.02 22.24 84.44 22.13 82.87 21.99 L 83.01 20.57 L 84.23 20.82 C 84.02 19.13 83.86 17.42 83.35 15.79 C 80.33 14.66 77.10 14.34 73.94 13.79 Z" />
<path fill="#61af9a" opacity="1.00" d=" M 63.01 12.29 C 64.62 11.88 66.22 11.46 67.83 11.04 C 68.34 11.36 69.38 12.02 69.89 12.34 C 69.27 13.60 68.65 14.87 68.03 16.13 C 66.46 15.60 64.88 15.07 63.30 14.55 C 63.23 13.98 63.08 12.85 63.01 12.29 Z" />
<path fill="#61af9a" opacity="1.00" d=" M 71.62 14.07 C 73.24 13.60 73.77 14.19 73.20 15.83 C 71.58 16.29 71.05 15.70 71.62 14.07 Z" />
<path fill="#61af9a" opacity="1.00" d=" M 297.45 17.45 C 300.06 15.98 302.58 14.22 305.63 13.79 C 305.82 14.50 306.21 15.94 306.40 16.65 C 309.05 16.75 313.20 15.29 313.98 18.93 C 312.38 20.41 310.49 21.51 308.70 22.72 C 309.53 22.61 310.36 22.50 311.20 22.39 C 315.02 23.88 319.10 24.44 323.06 25.45 C 323.53 24.87 324.46 23.71 324.93 23.12 C 326.72 23.69 328.52 24.28 330.31 24.89 C 330.34 25.56 330.41 26.91 330.44 27.58 C 331.37 28.32 332.30 29.05 333.23 29.79 C 333.63 29.24 334.44 28.12 334.85 27.57 C 337.09 27.79 339.33 27.98 341.59 28.12 C 342.28 26.31 342.82 24.30 344.42 23.03 C 346.12 23.41 346.91 25.16 348.05 26.30 C 349.61 26.20 351.17 26.00 352.75 26.07 C 353.63 27.07 354.39 28.16 355.18 29.23 C 357.72 29.11 360.34 28.32 362.86 28.98 C 363.86 30.11 364.57 31.47 365.35 32.76 C 367.99 31.48 370.87 31.57 373.69 32.09 C 374.56 33.00 375.43 33.91 376.30 34.82 C 376.49 33.51 376.67 32.20 376.86 30.89 C 384.59 31.01 390.81 36.09 397.95 38.30 C 397.07 40.19 395.40 41.54 394.04 43.06 C 392.16 41.81 390.20 40.71 388.08 39.96 C 387.12 40.85 386.16 41.74 385.18 42.60 C 385.47 43.72 385.78 44.83 386.03 45.97 C 382.29 46.95 378.67 48.37 375.69 50.89 C 375.23 50.64 374.31 50.15 373.85 49.91 C 372.24 50.59 370.57 51.14 369.08 52.05 C 367.25 53.27 368.40 55.78 368.16 57.57 C 367.70 58.17 367.25 58.78 366.80 59.39 C 365.56 63.44 362.58 66.51 360.05 69.78 C 359.53 69.42 359.02 69.07 358.51 68.72 L 360.23 67.43 C 360.18 63.95 359.01 60.54 359.39 57.05 C 361.36 54.64 363.95 52.84 366.17 50.67 C 365.72 50.07 364.82 48.88 364.37 48.28 C 363.82 48.25 362.72 48.19 362.17 48.16 C 360.77 49.90 359.44 51.68 358.24 53.57 C 356.81 53.87 355.38 54.17 353.95 54.46 C 354.16 53.76 354.58 52.37 354.78 51.67 C 353.79 52.22 352.81 52.77 351.83 53.32 C 349.48 53.02 346.41 51.07 344.66 53.57 C 342.51 56.30 339.52 58.45 337.96 61.58 C 339.75 61.82 341.56 61.89 343.37 61.99 C 344.21 68.90 342.02 76.09 337.00 81.00 C 336.10 82.39 334.39 81.86 333.02 81.97 C 331.62 83.72 330.21 85.46 328.78 87.19 C 329.68 88.78 331.21 90.20 331.36 92.11 C 330.67 93.70 329.13 94.65 327.96 95.84 C 327.55 93.03 326.99 90.25 326.01 87.58 C 324.73 86.82 323.49 86.03 322.26 85.21 C 321.22 86.86 318.11 88.03 318.92 90.23 C 320.59 90.21 322.27 90.14 323.95 90.04 C 322.64 91.40 321.32 92.75 320.00 94.10 C 321.34 97.26 323.79 100.74 322.17 104.26 C 320.78 107.02 319.40 109.87 317.36 112.22 C 315.07 113.62 312.48 114.42 310.00 115.39 C 310.42 116.37 310.84 117.36 311.28 118.34 C 310.35 119.57 309.49 121.01 307.81 121.26 C 307.68 119.01 308.53 116.87 309.03 114.71 C 307.62 115.75 306.14 116.72 304.98 118.05 C 305.82 121.89 308.58 125.05 309.18 128.98 C 308.26 131.29 305.80 132.18 303.70 133.10 C 301.94 130.96 300.15 128.84 298.32 126.76 C 298.40 129.64 297.37 132.99 299.50 135.38 C 301.56 137.93 302.45 141.10 302.72 144.34 C 298.52 142.29 298.42 137.31 296.55 133.61 C 297.30 130.10 296.43 126.63 295.11 123.37 C 294.32 123.49 292.74 123.74 291.95 123.86 C 291.38 120.50 290.88 117.01 289.02 114.07 C 283.98 115.60 281.45 120.67 278.44 124.57 C 277.49 128.20 277.35 132.30 274.56 135.15 C 272.31 134.22 272.78 131.06 271.76 129.16 C 269.87 124.74 268.56 120.05 269.37 115.20 C 268.55 115.59 266.92 116.36 266.11 116.75 C 265.09 114.61 264.03 112.48 262.96 110.37 C 259.28 110.53 255.12 110.97 252.04 108.51 C 250.71 108.40 249.38 108.30 248.06 108.20 C 246.42 105.96 244.71 103.75 242.83 101.71 C 242.35 104.45 243.76 106.66 245.76 108.36 C 246.32 109.45 246.79 110.61 247.59 111.57 C 248.71 110.71 249.78 109.79 250.87 108.88 C 252.20 110.88 254.73 112.48 254.91 114.99 C 253.91 117.70 252.10 120.18 249.62 121.71 C 245.57 124.36 241.73 128.06 236.59 128.17 C 237.04 129.15 237.50 130.14 237.95 131.13 C 240.86 130.29 243.79 129.54 246.74 128.89 C 245.62 133.05 243.96 137.08 241.84 140.83 C 238.50 145.65 231.88 149.30 232.71 156.01 C 233.69 160.29 234.73 164.58 234.42 169.02 C 232.10 170.85 229.80 172.71 227.38 174.41 C 228.22 176.22 229.17 178.03 229.46 180.04 C 229.44 182.30 226.50 182.08 225.03 182.89 C 225.46 183.53 225.89 184.18 226.32 184.84 C 223.96 188.28 222.42 192.35 219.47 195.35 C 216.61 196.42 213.54 196.75 210.61 197.61 C 210.04 196.73 209.47 195.85 208.91 194.97 C 208.63 191.74 207.64 188.64 206.15 185.77 C 204.48 182.76 205.58 179.06 204.04 176.00 C 203.18 173.71 201.17 171.62 201.73 169.01 C 202.04 166.73 203.17 164.70 204.23 162.71 C 204.18 157.22 201.94 152.16 198.48 147.98 C 199.16 145.49 199.55 142.92 199.41 140.33 C 198.10 140.30 196.78 140.27 195.47 140.24 C 194.17 139.34 193.19 136.54 191.27 137.59 C 187.76 139.57 183.78 140.25 179.81 140.62 C 177.90 138.81 175.95 137.05 174.09 135.18 C 173.01 131.58 169.98 129.00 168.86 125.39 C 171.76 122.74 171.02 118.92 169.57 115.70 C 171.56 111.75 172.50 106.85 176.51 104.34 C 178.50 103.06 177.16 100.16 178.49 98.44 C 180.08 96.37 182.20 94.50 184.97 94.48 C 187.52 94.29 189.35 91.97 191.97 92.08 C 196.92 91.97 201.79 91.08 206.59 89.89 C 205.40 85.68 200.61 84.15 199.29 79.96 C 198.26 80.57 197.23 81.17 196.20 81.77 C 195.23 81.87 193.85 81.00 193.21 82.15 C 190.18 85.33 188.58 89.49 185.89 92.92 C 184.79 92.84 183.69 92.77 182.60 92.69 C 181.30 92.28 180.00 91.88 178.69 91.49 C 178.70 87.98 178.92 84.45 178.39 80.97 C 181.49 80.49 184.59 80.90 187.66 81.40 C 188.38 77.70 185.87 74.96 183.16 72.87 C 185.77 71.99 188.26 70.76 190.41 69.03 C 187.50 69.17 184.67 69.88 181.94 70.89 C 182.95 68.11 183.27 64.78 185.92 62.98 C 184.97 62.47 184.01 61.97 183.05 61.48 C 181.37 58.53 181.53 54.36 185.36 53.27 C 185.28 53.97 185.14 55.37 185.07 56.07 C 185.43 56.04 186.17 55.98 186.53 55.96 C 185.09 60.17 189.10 63.07 191.43 65.95 C 191.04 66.60 190.25 67.91 189.86 68.56 C 191.02 67.98 192.18 67.39 193.33 66.79 C 194.59 64.81 196.76 64.01 198.90 63.39 C 198.47 61.53 198.02 59.67 197.56 57.81 C 198.56 56.97 199.55 56.13 200.55 55.28 C 200.76 56.20 201.20 58.02 201.41 58.94 L 201.69 58.92 C 202.01 56.93 201.81 54.92 201.66 52.93 C 199.90 54.07 198.12 55.17 196.30 56.20 C 195.85 55.66 194.96 54.56 194.52 54.01 C 194.67 52.07 194.51 50.05 195.15 48.18 C 197.03 46.06 200.32 45.39 201.37 42.49 C 204.82 37.19 208.38 30.19 215.39 29.41 C 218.69 28.84 222.72 28.28 224.65 31.71 C 228.20 33.34 231.92 34.69 235.14 36.95 C 233.88 37.95 232.62 38.95 231.35 39.95 C 229.89 39.34 228.42 38.75 226.94 38.20 C 227.50 39.89 228.05 41.59 228.89 43.17 C 232.04 41.66 234.71 39.37 237.64 37.50 C 237.60 36.67 237.52 35.01 237.48 34.18 C 239.45 34.25 240.54 35.73 241.39 37.33 C 242.31 36.55 243.23 35.77 244.16 34.99 C 243.53 34.60 242.27 33.83 241.64 33.44 C 242.31 33.00 243.67 32.11 244.35 31.67 C 244.35 32.50 244.34 34.16 244.34 35.00 C 245.46 34.32 246.58 33.64 247.70 32.97 C 248.19 33.32 249.16 34.02 249.65 34.38 C 251.60 34.11 253.56 33.86 255.52 33.63 C 255.47 33.12 255.36 32.09 255.31 31.58 C 258.81 32.25 261.99 33.88 265.18 35.40 C 264.23 33.90 263.26 32.42 262.30 30.93 C 263.54 28.11 265.22 25.35 268.51 24.79 C 268.62 28.54 269.45 32.24 269.41 36.00 C 268.79 37.80 267.04 38.91 265.89 40.37 C 267.64 39.43 270.15 39.07 270.95 36.99 C 271.68 32.61 268.44 27.63 271.56 23.76 C 271.68 24.69 271.92 26.53 272.04 27.45 C 272.99 26.47 273.92 25.47 274.97 24.58 C 276.41 25.20 277.75 26.02 279.11 26.80 C 278.61 25.79 278.22 24.72 277.90 23.64 C 279.16 23.46 280.42 23.29 281.68 23.11 C 283.05 19.73 287.04 19.28 290.07 18.21 C 292.45 17.35 295.01 17.82 297.45 17.45 M 207.93 47.59 C 208.64 49.10 209.38 50.58 209.96 52.14 C 209.38 52.97 208.77 53.77 208.12 54.55 C 207.97 55.54 207.82 56.53 207.67 57.53 C 206.65 58.58 205.65 59.64 204.66 60.72 C 203.57 60.97 202.47 61.23 201.38 61.48 C 201.22 61.18 200.90 60.58 200.74 60.29 C 198.83 59.11 200.64 62.00 200.69 62.93 C 204.35 62.76 208.00 62.28 211.48 61.10 C 211.86 58.48 212.50 55.86 214.10 53.69 C 214.14 54.70 214.23 56.71 214.27 57.72 C 216.53 56.74 215.54 54.50 215.30 52.68 C 217.81 52.46 220.87 53.01 222.44 50.51 C 219.06 50.38 215.82 51.34 212.72 52.55 C 212.63 50.68 212.44 48.80 212.58 46.92 C 213.71 44.49 215.75 42.65 217.37 40.55 C 212.63 39.82 211.18 45.26 207.93 47.59 M 220.32 85.98 C 218.34 86.29 216.35 86.40 214.36 86.59 C 214.96 88.04 215.62 89.47 216.14 90.95 C 215.15 91.48 214.14 91.98 213.12 92.46 C 212.26 90.26 211.39 88.07 210.40 85.92 C 210.52 85.52 210.76 84.72 210.89 84.32 C 207.87 82.58 205.31 80.21 203.00 77.63 C 202.76 78.19 202.29 79.30 202.06 79.85 C 204.24 82.45 206.71 84.77 209.33 86.92 C 208.70 86.88 207.44 86.80 206.81 86.75 C 207.05 87.24 207.52 88.22 207.75 88.71 C 206.99 90.04 206.25 91.37 205.52 92.71 C 204.88 92.36 203.60 91.66 202.96 91.31 C 201.69 93.09 200.58 95.04 200.09 97.20 C 204.48 97.29 207.93 99.71 210.96 102.65 C 211.32 100.98 211.67 99.32 212.02 97.65 C 214.74 98.51 217.24 100.04 220.03 100.65 C 222.46 100.56 224.85 100.02 227.26 99.71 C 227.53 97.80 227.75 95.89 227.91 93.97 C 228.17 93.55 228.70 92.72 228.96 92.31 C 226.49 92.69 223.93 93.08 221.46 92.57 C 219.96 91.67 217.40 90.48 218.13 88.33 C 219.69 86.70 221.52 85.32 223.56 84.33 C 227.41 81.92 231.73 85.10 235.87 84.24 C 233.90 81.59 229.28 80.37 230.28 76.31 L 228.98 76.18 C 228.58 77.88 228.05 79.60 226.70 80.80 C 225.67 79.37 225.03 77.71 224.26 76.14 C 221.91 78.91 219.71 82.13 220.32 85.98 M 224.70 103.45 C 227.05 108.29 229.52 113.15 230.76 118.43 C 232.40 121.83 234.33 125.11 236.94 127.87 C 236.30 124.22 236.40 120.15 233.69 117.27 C 231.05 112.47 229.50 106.70 224.70 103.45 Z" />
<path fill="#61af9a" opacity="1.00" d=" M 52.84 18.63 C 55.49 17.29 57.88 15.50 60.34 13.84 C 60.72 14.65 61.47 16.26 61.85 17.07 C 61.15 17.89 60.45 18.70 59.76 19.52 C 57.73 19.56 55.71 19.82 53.74 20.33 C 53.51 19.91 53.06 19.06 52.84 18.63 Z" />
<path fill="#61af9a" opacity="1.00" d=" M 75.42 15.25 C 78.41 13.70 75.60 18.58 75.42 15.25 Z" />
<path fill="#61af9a" opacity="1.00" d=" M 263.36 15.32 C 265.25 14.16 266.01 17.69 264.14 18.05 C 259.13 19.46 253.61 21.11 250.88 25.99 C 249.15 27.84 252.35 29.32 252.98 30.92 C 250.19 30.16 247.51 29.07 245.06 27.54 C 247.71 25.02 249.79 21.99 252.31 19.36 C 255.63 17.18 259.75 16.88 263.36 15.32 Z" />
<path fill="#61af9a" opacity="1.00" d=" M 68.21 20.76 C 68.34 19.17 68.50 17.59 68.68 16.01 C 69.11 16.55 69.97 17.63 70.41 18.17 C 72.10 18.90 72.50 20.48 72.58 22.18 C 70.12 22.44 67.67 22.79 65.23 23.22 C 63.51 22.17 61.53 21.84 59.57 21.51 C 60.65 20.25 61.69 18.94 62.98 17.87 C 64.81 18.67 66.48 19.77 68.21 20.76 Z" />
<path fill="#61af9a" opacity="1.00" d=" M 73.08 16.14 C 74.35 17.08 75.59 18.08 76.80 19.10 C 77.51 18.26 78.22 17.41 78.93 16.57 C 79.73 16.77 81.32 17.17 82.12 17.37 C 81.80 18.85 81.47 20.34 81.14 21.82 C 78.95 21.30 76.68 20.92 74.44 21.44 C 74.02 19.67 73.54 17.91 73.08 16.14 Z" />
<path fill="#61af9a" opacity="1.00" d=" M 339.92 18.01 C 342.57 17.70 345.24 17.60 347.87 18.15 C 347.84 18.78 347.78 20.03 347.74 20.66 C 345.24 21.03 342.71 21.27 340.18 21.16 C 340.12 20.38 339.99 18.80 339.92 18.01 Z" />
<path fill="#61af9a" opacity="1.00" d=" M 347.89 18.86 C 350.59 18.65 353.29 19.02 355.80 20.06 C 353.24 22.36 350.04 20.89 347.89 18.86 Z" />
<path fill="#61af9a" opacity="1.00" d=" M 51.01 28.11 C 52.36 26.14 53.15 23.55 55.07 22.08 C 60.23 23.47 65.25 25.47 70.24 27.42 C 71.22 26.12 72.24 24.82 73.46 23.73 C 74.00 25.98 73.23 29.02 75.47 30.48 C 76.44 31.24 77.42 31.98 78.43 32.69 C 77.07 35.81 73.80 34.41 71.17 34.50 C 68.84 35.09 66.40 36.54 64.32 34.50 C 63.67 34.42 62.38 34.25 61.73 34.16 C 60.54 32.22 59.51 30.18 58.68 28.05 C 57.48 28.83 56.29 29.65 55.01 30.29 C 53.49 30.00 52.33 28.83 51.01 28.11 Z" />
<path fill="#61af9a" opacity="1.00" d=" M 84.22 23.38 C 86.18 23.36 88.60 22.44 90.20 24.03 C 88.96 25.87 87.07 27.59 84.98 28.28 C 84.49 26.70 84.23 25.07 84.22 23.38 Z" />
<path fill="#61af9a" opacity="1.00" d=" M 75.40 26.71 C 77.20 24.40 79.84 23.29 82.76 23.85 C 82.44 25.80 83.63 28.53 81.56 29.77 C 79.17 29.69 77.38 27.80 75.40 26.71 Z" />
<path fill="#61af9a" opacity="1.00" d=" M 90.74 25.97 C 92.36 24.62 94.36 23.87 96.24 22.96 C 95.84 24.69 95.41 26.41 94.96 28.13 C 96.31 26.17 97.28 23.17 100.25 24.02 C 100.44 24.83 100.83 26.46 101.02 27.28 C 106.65 25.34 111.13 29.85 115.86 32.04 C 115.50 33.25 115.13 34.45 114.77 35.66 C 117.49 36.67 120.19 37.73 122.88 38.82 C 121.77 40.31 120.65 41.80 119.53 43.29 C 117.84 41.55 116.12 39.85 114.23 38.32 C 115.86 41.49 119.06 43.94 119.21 47.74 C 117.64 46.94 116.08 46.14 114.53 45.32 C 115.26 46.36 116.72 48.44 117.45 49.48 C 113.68 47.93 110.19 45.80 106.88 43.43 C 105.54 44.85 104.16 46.24 102.74 47.58 C 103.22 46.48 103.71 45.38 104.20 44.28 C 103.67 43.20 103.14 42.12 102.62 41.04 C 103.64 41.14 105.69 41.34 106.71 41.44 C 107.60 38.71 108.84 35.53 105.60 33.78 C 105.99 34.65 106.78 36.40 107.17 37.27 C 106.01 37.63 104.84 37.99 103.68 38.35 C 104.12 37.14 104.57 35.93 105.03 34.72 C 104.30 33.77 103.58 32.82 102.85 31.88 C 101.29 32.54 99.72 33.17 98.16 33.84 L 100.40 34.43 C 99.83 36.13 99.38 37.88 98.66 39.53 C 97.36 39.73 96.05 39.82 94.75 39.94 C 93.69 43.01 91.60 45.33 88.32 45.94 C 87.25 48.42 85.16 50.95 85.89 53.78 C 87.46 57.44 91.91 57.93 94.82 60.11 C 98.42 61.93 99.60 65.99 101.58 69.18 C 102.93 67.12 102.80 64.75 102.40 62.43 C 103.12 61.30 103.93 60.21 104.49 58.99 C 104.18 57.51 103.54 56.13 103.02 54.73 C 103.27 54.27 103.76 53.35 104.01 52.89 C 103.72 52.41 103.12 51.45 102.83 50.96 C 103.35 49.70 103.87 48.44 104.39 47.18 C 107.36 48.12 110.27 49.22 113.15 50.41 C 113.15 51.60 113.15 52.79 113.15 53.98 C 114.10 54.43 115.05 54.88 116.00 55.34 C 117.01 53.09 117.96 50.82 118.85 48.53 C 119.23 51.35 119.94 54.12 121.09 56.74 C 121.57 59.45 123.24 61.28 125.99 61.78 C 127.08 63.86 128.13 65.95 129.19 68.05 C 128.67 68.53 127.62 69.51 127.10 69.99 C 128.81 71.27 130.51 72.56 132.20 73.87 C 131.59 74.77 130.98 75.67 130.38 76.56 C 128.64 75.78 126.88 75.02 125.13 74.28 C 123.58 78.18 119.86 80.21 116.59 82.47 C 116.54 81.69 116.43 80.13 116.38 79.35 C 115.19 79.80 114.01 80.25 112.83 80.70 C 112.21 84.24 110.44 87.35 106.92 88.65 C 106.40 90.86 106.24 93.20 105.32 95.29 C 103.71 97.08 101.58 98.30 100.01 100.12 C 99.11 103.15 101.12 105.84 102.87 108.08 C 101.80 108.93 100.74 109.79 99.68 110.64 C 98.57 107.96 97.85 105.10 96.35 102.60 C 94.55 102.15 92.69 102.05 90.85 101.83 C 90.80 102.41 90.68 103.58 90.62 104.16 C 87.72 104.19 83.14 103.47 82.26 107.20 C 81.82 110.73 81.32 114.71 83.10 117.96 C 83.95 119.91 86.24 119.60 87.96 119.89 C 89.54 117.92 91.35 116.16 93.45 114.74 C 93.23 117.81 92.57 120.82 91.42 123.67 C 93.61 123.59 95.81 123.51 98.00 123.45 C 97.66 125.88 97.10 128.31 97.15 130.78 C 98.40 133.57 102.12 132.61 104.55 133.29 C 106.40 131.58 108.34 129.99 110.29 128.41 C 110.21 129.83 110.03 132.66 109.95 134.08 C 110.54 132.68 111.12 131.28 111.69 129.88 C 113.45 130.51 115.21 131.15 116.97 131.80 C 118.27 131.73 119.57 131.67 120.88 131.63 C 121.92 131.13 122.97 130.64 124.02 130.16 C 123.11 131.24 122.19 132.29 121.27 133.35 C 124.41 136.32 128.29 138.16 132.46 139.20 C 133.15 140.88 133.84 142.57 134.55 144.25 C 133.90 145.16 133.25 146.07 132.60 146.98 C 133.22 146.74 134.47 146.24 135.09 145.99 C 136.44 146.73 137.80 147.46 139.15 148.21 C 141.09 149.66 143.40 150.40 145.76 150.87 C 146.52 151.84 147.29 152.82 148.05 153.80 C 148.68 153.64 149.93 153.31 150.56 153.15 C 150.66 155.05 150.91 156.97 150.65 158.88 C 149.40 162.01 146.26 164.34 146.17 167.90 C 146.07 171.71 145.02 175.38 143.24 178.74 C 139.99 179.67 137.23 181.63 134.74 183.84 C 135.08 184.42 135.74 185.58 136.08 186.16 C 133.80 190.01 131.77 194.05 128.93 197.53 C 127.00 197.11 125.31 196.04 123.55 195.20 C 124.72 196.75 125.88 198.31 127.03 199.88 C 126.22 201.49 125.36 203.08 124.47 204.66 C 123.78 204.51 122.40 204.22 121.72 204.07 C 121.03 206.23 119.64 207.72 117.26 207.52 C 117.60 209.19 117.94 210.87 118.29 212.55 C 117.05 213.68 115.82 214.80 114.59 215.94 C 115.29 216.34 116.70 217.15 117.40 217.55 C 115.92 219.65 114.39 221.71 112.75 223.69 C 113.64 226.80 115.58 229.40 118.41 231.00 L 114.63 231.00 C 112.59 230.42 109.21 230.69 108.83 227.98 C 107.68 224.13 106.97 219.98 108.05 216.03 C 108.83 213.04 108.78 209.93 108.11 206.92 C 108.76 200.94 109.91 195.02 110.43 189.02 C 111.00 183.53 112.38 177.96 111.49 172.46 C 109.45 169.87 105.97 168.37 104.99 165.02 C 103.50 160.79 101.73 156.66 99.43 152.80 C 99.86 152.07 100.28 151.35 100.71 150.62 C 100.69 149.33 99.87 147.89 100.57 146.67 C 102.21 143.66 103.87 140.65 104.88 137.35 C 104.34 136.31 103.80 135.26 103.27 134.22 C 101.66 134.44 100.02 135.27 98.38 134.89 C 95.16 133.52 94.35 129.56 91.48 127.78 C 89.37 126.45 87.28 125.07 85.34 123.49 C 84.55 123.79 83.77 124.08 82.99 124.38 C 79.46 122.86 75.99 121.08 73.12 118.49 C 71.87 111.35 66.52 105.90 62.54 100.12 C 64.10 105.21 67.59 109.47 68.82 114.66 C 65.20 110.99 63.00 106.28 61.46 101.43 C 60.55 97.77 56.74 96.20 54.90 93.14 C 51.20 87.63 52.67 80.59 50.46 74.56 C 48.72 68.54 44.83 63.37 43.41 57.23 C 38.32 54.03 32.13 53.81 26.74 51.35 C 25.05 52.60 23.36 53.82 21.66 55.05 C 21.60 54.08 21.47 52.16 21.41 51.20 C 20.86 52.70 20.33 54.20 19.81 55.71 C 20.49 56.41 21.17 57.11 21.85 57.81 C 21.36 58.11 20.38 58.71 19.89 59.01 C 19.08 58.70 18.27 58.39 17.46 58.08 C 14.27 60.69 10.58 62.66 6.53 63.52 C 10.20 60.87 13.83 58.12 16.72 54.59 C 14.75 54.87 12.79 55.19 10.83 55.51 C 10.69 54.88 10.42 53.62 10.28 52.99 C 9.07 52.27 7.86 51.54 6.65 50.81 C 6.35 51.75 5.76 53.63 5.47 54.56 C 5.50 52.73 5.38 50.84 5.98 49.08 C 7.89 47.34 10.12 46.01 12.20 44.49 C 9.46 44.23 6.06 44.77 4.32 42.06 C 5.29 38.76 9.21 40.65 11.66 40.49 C 9.53 38.97 7.37 37.49 5.20 36.03 C 8.41 34.17 11.32 31.62 14.96 30.63 C 18.71 30.12 22.33 31.65 26.03 31.99 C 30.76 32.49 35.57 33.18 39.79 35.53 C 40.11 35.11 40.76 34.28 41.08 33.86 C 48.64 31.64 57.16 32.75 63.80 37.00 C 66.06 37.67 68.31 38.34 70.56 39.04 C 70.50 38.22 70.37 36.58 70.31 35.76 C 75.08 36.30 79.81 37.21 84.47 38.34 C 85.34 36.34 86.11 34.24 85.27 32.06 C 84.83 33.10 83.93 35.18 83.49 36.23 C 81.63 35.51 79.79 34.77 77.97 33.97 C 79.69 33.63 81.39 33.26 83.09 32.86 C 83.69 31.58 83.33 29.37 84.99 28.88 C 87.21 29.08 88.36 31.35 89.88 32.69 C 92.25 33.71 92.90 36.13 93.48 38.42 C 94.58 36.65 95.72 34.90 96.89 33.17 C 96.91 32.90 96.96 32.36 96.98 32.09 C 95.33 31.74 93.61 31.54 92.06 30.81 C 89.91 30.20 90.78 27.61 90.74 25.97 M 119.47 70.65 C 120.15 71.30 121.51 72.61 122.19 73.26 C 119.91 72.94 118.91 71.16 118.40 69.10 C 115.72 70.69 113.15 72.60 111.59 75.35 C 113.87 74.27 115.56 71.56 118.13 71.42 C 119.26 73.01 118.47 75.15 118.75 76.95 C 123.20 75.96 124.94 71.58 126.44 67.80 C 124.31 69.19 121.87 69.89 119.47 70.65 Z" />
<path fill="#61af9a" opacity="1.00" d=" M 385.34 28.03 C 387.25 28.05 389.16 28.14 391.07 28.30 C 389.51 29.94 386.30 30.73 385.34 28.03 Z" />
<path fill="#61af9a" opacity="1.00" d=" M 131.04 29.32 C 131.95 30.50 133.44 31.38 133.79 32.91 C 133.08 33.43 131.65 34.47 130.94 34.99 C 128.72 33.53 130.58 31.15 131.04 29.32 Z" />
<path fill="#61af9a" opacity="1.00" d=" M 164.16 39.17 C 166.92 39.67 169.77 40.02 172.50 39.19 C 173.15 40.16 173.80 41.12 174.41 42.13 C 172.29 43.91 169.77 45.53 166.95 45.78 C 164.20 45.79 163.54 42.63 162.15 40.87 C 162.65 40.44 163.66 39.59 164.16 39.17 Z" />
<path fill="#61af9a" opacity="1.00" d=" M 93.59 45.77 C 94.26 44.22 94.94 42.67 95.61 41.12 C 97.76 42.36 99.89 43.63 101.97 44.97 C 100.32 46.76 98.92 49.13 96.25 49.44 C 97.29 48.27 98.39 47.16 99.56 46.11 C 98.88 45.75 98.21 45.40 97.54 45.04 C 97.17 45.59 96.43 46.68 96.07 47.23 C 95.45 46.86 94.21 46.14 93.59 45.77 Z" />
<path fill="#61af9a" opacity="1.00" d=" M 0.00 43.95 C 1.35 44.37 2.72 44.75 4.08 45.13 C 3.81 45.65 3.27 46.68 2.99 47.19 C 1.99 46.53 0.99 45.86 0.00 45.18 L 0.00 43.95 Z" />
<path fill="#61af9a" opacity="1.00" d=" M 101.18 47.43 C 104.50 47.64 99.61 50.41 101.18 47.43 Z" />
<path fill="#61af9a" opacity="1.00" d=" M 209.08 56.85 C 208.62 55.49 209.11 54.95 210.54 55.24 C 210.98 56.60 210.50 57.13 209.08 56.85 Z" />
<path fill="#61af9a" opacity="1.00" d=" M 38.70 55.59 C 43.71 58.01 43.97 63.79 45.06 68.54 C 41.69 64.94 41.27 59.71 38.70 55.59 Z" />
<path fill="#61af9a" opacity="1.00" d=" M 177.14 63.24 C 178.68 62.23 180.20 61.09 182.04 60.71 C 181.81 62.75 181.41 64.78 180.72 66.72 C 179.54 67.58 178.12 68.01 176.80 68.58 C 177.07 67.85 177.60 66.37 177.86 65.63 C 177.62 64.84 177.38 64.04 177.14 63.24 Z" />
<path fill="#61af9a" opacity="1.00" d=" M 344.70 76.35 C 345.09 71.74 343.77 66.67 346.31 62.49 C 346.79 65.25 347.11 68.04 347.54 70.81 C 347.14 71.07 346.34 71.58 345.94 71.83 C 346.02 73.38 346.10 74.92 346.19 76.47 L 344.70 76.35 Z" />
<path fill="#61af9a" opacity="1.00" d=" M 357.70 71.22 C 358.00 71.27 358.59 71.37 358.88 71.42 C 356.36 74.12 353.77 76.88 350.43 78.58 C 351.15 77.76 351.89 76.97 352.68 76.21 C 354.56 74.77 356.21 73.06 357.70 71.22 Z" />
<path fill="#61af9a" opacity="1.00" d=" M 341.70 83.68 C 343.18 81.61 344.09 79.26 344.49 76.76 C 344.87 77.49 345.64 78.93 346.03 79.66 C 346.58 79.68 347.68 79.71 348.23 79.73 C 348.45 80.22 348.89 81.20 349.11 81.69 C 346.65 82.40 344.17 83.04 341.70 83.68 Z" />
<path fill="#61af9a" opacity="1.00" d=" M 198.18 85.50 C 200.18 84.47 201.18 88.71 199.01 88.88 C 197.54 88.63 197.15 86.44 198.18 85.50 Z" />
<path fill="#61af9a" opacity="1.00" d=" M 337.39 93.19 C 340.35 90.72 342.35 87.45 343.28 83.71 C 343.85 85.02 344.42 86.34 344.96 87.67 C 344.66 88.19 344.05 89.21 343.75 89.72 C 343.45 91.62 342.96 93.48 342.35 95.30 C 341.49 95.23 339.77 95.08 338.91 95.00 C 338.64 95.44 338.09 96.31 337.82 96.75 C 337.42 96.67 336.62 96.52 336.22 96.44 C 335.61 97.01 335.01 97.58 334.42 98.16 C 334.16 97.50 333.63 96.18 333.37 95.52 C 333.44 97.68 332.94 99.69 331.07 100.96 C 330.87 99.30 330.69 97.63 330.53 95.97 C 332.71 94.80 334.98 93.80 337.39 93.19 Z" />
<path fill="#61af9a" opacity="1.00" d=" M 191.91 86.88 C 193.54 86.42 194.07 86.99 193.51 88.61 C 191.88 89.07 191.34 88.50 191.91 86.88 Z" />
<path fill="#61af9a" opacity="1.00" d=" M 214.13 93.78 C 215.92 94.07 217.71 94.44 219.48 94.88 C 217.56 95.83 215.39 95.83 214.13 93.78 Z" />
<path fill="#61af9a" opacity="1.00" d=" M 224.51 95.75 C 223.77 94.57 225.76 93.23 226.68 94.17 C 227.42 95.35 225.43 96.69 224.51 95.75 Z" />
<path fill="#61af9a" opacity="1.00" d=" M 104.58 107.44 C 106.34 108.07 104.49 112.32 102.77 111.53 C 102.13 110.05 103.56 108.39 104.58 107.44 Z" />
<path fill="#61af9a" opacity="1.00" d=" M 322.19 110.03 C 323.85 110.57 323.04 113.59 321.63 114.06 C 319.86 113.53 320.69 110.47 322.19 110.03 Z" />
<path fill="#61af9a" opacity="1.00" d=" M 107.07 112.26 C 107.61 112.81 107.61 112.81 107.07 112.26 Z" />
<path fill="#61af9a" opacity="1.00" d=" M 94.64 114.59 C 96.40 113.99 98.13 112.74 100.09 113.15 C 102.71 114.07 104.96 115.77 107.38 117.10 C 107.91 116.52 108.97 115.36 109.51 114.78 C 109.26 117.46 105.73 119.08 103.77 117.00 C 101.77 115.93 99.03 112.69 97.17 115.81 C 96.32 115.41 95.48 115.00 94.64 114.59 Z" />
<path fill="#61af9a" opacity="1.00" d=" M 109.20 118.07 C 111.41 117.93 113.55 118.80 114.72 120.75 C 112.17 121.33 109.56 121.60 106.95 121.66 C 107.66 120.44 108.35 119.21 109.20 118.07 Z" />
<path fill="#61af9a" opacity="1.00" d=" M 114.45 121.49 C 114.94 119.06 117.29 118.85 119.27 118.47 C 117.85 119.76 116.26 120.85 114.45 121.49 Z" />
<path fill="#61af9a" opacity="1.00" d=" M 103.01 119.34 C 104.35 118.32 106.80 120.26 105.64 121.70 C 104.32 122.73 101.79 120.75 103.01 119.34 Z" />
<path fill="#61af9a" opacity="1.00" d=" M 122.11 119.58 C 125.47 119.66 120.61 122.57 122.11 119.58 Z" />
<path fill="#61af9a" opacity="1.00" d=" M 320.60 119.77 C 321.05 119.66 321.96 119.45 322.41 119.35 C 322.61 119.91 323.02 121.05 323.22 121.62 C 322.75 122.75 322.30 123.90 321.85 125.05 C 323.67 125.89 325.20 127.19 326.73 128.48 C 326.70 129.66 326.69 130.85 326.69 132.03 C 325.62 129.23 324.07 126.52 320.70 126.44 C 320.39 124.22 320.43 121.99 320.60 119.77 Z" />
<path fill="#61af9a" opacity="1.00" d=" M 122.98 121.99 C 124.25 122.30 125.51 122.63 126.78 122.96 C 126.74 125.84 126.80 129.05 123.92 130.63 C 124.62 128.70 125.43 126.82 126.26 124.95 C 125.17 123.95 124.07 122.97 122.98 121.99 Z" />
<path fill="#61af9a" opacity="1.00" d=" M 322.27 129.62 C 323.75 128.67 325.60 131.19 324.33 132.40 C 322.81 133.68 321.17 130.82 322.27 129.62 Z" />
<path fill="#61af9a" opacity="1.00" d=" M 319.55 130.41 C 321.23 131.18 318.66 134.35 317.24 133.90 C 316.89 132.47 318.26 130.90 319.55 130.41 Z" />
<path fill="#61af9a" opacity="1.00" d=" M 276.88 132.84 C 278.77 132.18 279.34 134.76 280.12 135.94 C 279.51 137.21 278.61 138.37 277.03 138.00 C 276.37 136.33 276.13 134.52 276.88 132.84 Z" />
<path fill="#61af9a" opacity="1.00" d=" M 322.46 134.68 C 324.07 133.96 325.69 133.24 327.30 132.52 C 327.21 134.44 327.11 136.35 327.00 138.26 C 325.47 137.08 323.97 135.87 322.46 134.68 Z" />
<path fill="#61af9a" opacity="1.00" d=" M 312.43 141.39 C 314.52 140.16 315.89 138.09 317.36 136.22 C 318.00 137.11 318.65 137.99 319.29 138.88 C 318.95 139.43 318.26 140.53 317.92 141.08 C 318.19 141.95 318.47 142.83 318.76 143.71 C 318.28 146.62 317.45 149.48 315.27 151.61 C 312.47 150.83 308.68 150.36 308.25 146.79 C 306.49 143.52 310.46 142.87 312.43 141.39 Z" />
<path fill="#61af9a" opacity="1.00" d=" M 291.93 138.05 C 293.73 138.39 295.58 138.92 296.78 140.41 C 300.30 143.69 303.56 147.42 305.35 151.95 C 305.08 152.65 304.53 154.03 304.25 154.73 C 306.53 154.74 308.81 154.82 311.10 154.84 C 312.36 156.07 313.62 157.29 314.86 158.55 C 311.66 157.98 308.28 157.89 305.26 156.63 C 299.00 151.85 297.10 143.77 291.93 138.05 Z" />
<path fill="#61af9a" opacity="1.00" d=" M 329.23 143.24 C 330.79 143.28 330.88 146.01 329.27 146.03 C 327.70 145.98 327.61 143.28 329.23 143.24 Z" />
<path fill="#61af9a" opacity="1.00" d=" M 320.26 144.63 C 322.62 144.34 325.01 144.40 327.39 144.44 C 325.28 145.75 322.79 145.99 320.39 146.29 C 321.56 146.82 322.71 147.40 323.84 148.02 C 323.26 148.68 322.68 149.34 322.10 150.00 C 322.69 150.52 323.88 151.57 324.47 152.10 C 324.03 152.55 323.13 153.46 322.69 153.92 C 322.34 153.23 321.99 152.54 321.65 151.86 C 321.08 152.87 320.30 153.63 319.31 154.14 C 319.02 150.96 319.07 147.63 320.26 144.63 Z" />
<path fill="#61af9a" opacity="1.00" d=" M 332.52 147.03 C 333.44 146.94 335.27 146.78 336.19 146.69 C 336.44 147.96 336.70 149.24 336.97 150.51 C 337.88 149.66 338.79 148.81 339.70 147.96 C 343.79 149.05 347.97 150.79 350.61 154.26 C 353.32 154.09 355.36 152.23 357.54 150.83 C 356.84 154.03 353.68 154.84 350.93 155.49 C 352.42 157.52 353.89 159.56 355.30 161.65 C 352.49 160.84 350.40 158.79 348.03 157.23 C 347.44 157.58 346.25 158.29 345.66 158.64 C 344.34 158.24 343.04 157.82 341.74 157.39 C 341.30 156.11 340.87 154.83 340.44 153.55 C 337.43 151.86 333.69 150.66 332.52 147.03 Z" />
<path fill="#61af9a" opacity="1.00" d=" M 359.09 154.53 C 360.46 154.06 360.99 154.53 360.69 155.94 C 359.31 156.41 358.78 155.94 359.09 154.53 Z" />
<path fill="#61af9a" opacity="1.00" d=" M 321.05 157.56 C 322.12 157.66 323.19 157.78 324.27 157.90 C 323.12 158.33 321.98 158.75 320.84 159.16 C 321.07 159.65 321.52 160.62 321.75 161.11 C 319.72 160.10 317.68 159.08 315.81 157.80 C 316.88 158.17 319.03 158.92 320.10 159.30 C 320.34 158.86 320.81 157.99 321.05 157.56 Z" />
<path fill="#61af9a" opacity="1.00" d=" M 323.70 161.07 C 324.89 158.86 327.08 157.60 329.46 157.00 C 327.83 158.73 325.86 160.11 323.70 161.07 Z" />
<path fill="#61af9a" opacity="1.00" d=" M 365.16 158.19 C 368.08 156.57 365.38 161.53 365.16 158.19 Z" />
<path fill="#61af9a" opacity="1.00" d=" M 345.20 161.56 C 347.64 165.24 350.16 169.07 350.38 173.64 C 350.95 173.81 352.09 174.15 352.65 174.33 C 355.33 179.45 359.44 184.82 357.71 190.97 C 356.38 194.23 354.68 197.35 353.90 200.82 C 352.55 201.80 351.21 202.79 349.88 203.80 C 349.58 203.32 348.97 202.36 348.67 201.88 C 347.81 202.46 346.96 203.04 346.11 203.63 C 342.81 201.70 341.45 198.09 340.00 194.78 C 339.20 195.17 338.40 195.56 337.60 195.96 C 336.72 194.63 335.94 193.22 334.84 192.07 C 332.23 191.61 329.58 192.18 327.20 193.24 C 323.59 194.87 319.73 195.76 316.00 197.00 C 315.14 190.43 312.37 184.13 313.11 177.39 C 316.56 175.24 321.65 174.75 323.34 170.57 C 325.02 168.87 326.63 167.11 328.19 165.31 C 328.71 165.89 329.75 167.05 330.26 167.64 C 330.92 166.36 331.57 165.08 332.22 163.79 C 334.51 163.37 336.83 163.03 339.17 163.19 C 339.07 164.66 338.58 166.05 338.18 167.46 C 339.99 168.88 341.82 170.26 343.67 171.64 C 344.53 168.34 344.77 164.93 345.20 161.56 Z" />
<path fill="#61af9a" opacity="1.00" d=" M 237.47 170.61 C 240.21 168.49 242.68 166.05 244.54 163.10 C 246.15 168.50 243.13 173.64 242.57 178.95 C 242.44 181.22 240.50 182.57 239.00 183.98 C 238.13 182.07 237.33 180.13 236.60 178.16 C 238.08 175.82 238.78 173.22 237.47 170.61 Z" />
<path fill="#61af9a" opacity="1.00" d=" M 372.22 166.48 C 375.56 166.64 370.66 169.44 372.22 166.48 Z" />
<path fill="#61af9a" opacity="1.00" d=" M 388.45 166.45 C 389.80 165.44 392.18 167.52 391.05 168.94 C 389.68 169.98 387.37 167.85 388.45 166.45 Z" />
<path fill="#61af9a" opacity="1.00" d=" M 382.64 176.58 C 384.10 175.24 385.58 173.91 387.24 172.80 C 386.47 173.87 385.59 174.82 384.59 175.66 C 384.75 176.04 385.08 176.79 385.24 177.16 C 384.59 177.02 383.29 176.73 382.64 176.58 Z" />
<path fill="#61af9a" opacity="1.00" d=" M 368.40 175.64 C 370.33 176.70 372.13 178.10 373.11 180.14 C 371.15 179.09 369.53 177.54 368.40 175.64 Z" />
<path fill="#61af9a" opacity="1.00" d=" M 398.04 178.06 C 398.66 177.11 399.31 176.18 400.00 175.27 L 400.00 180.92 C 399.31 179.98 398.66 179.03 398.04 178.06 Z" />
<path fill="#61af9a" opacity="1.00" d=" M 378.86 195.39 C 381.16 196.83 382.00 199.43 383.37 201.61 C 384.20 201.66 385.86 201.75 386.69 201.80 C 385.15 203.92 383.68 206.10 382.13 208.22 C 381.52 203.82 380.96 199.39 378.86 195.39 Z" />
<path fill="#61af9a" opacity="1.00" d=" M 347.26 206.17 C 349.07 206.23 350.88 206.29 352.69 206.33 C 352.08 207.90 351.50 209.50 350.73 211.01 C 348.68 210.26 348.27 207.84 347.26 206.17 Z" />
<path fill="#61af9a" opacity="1.00" d=" M 373.07 212.08 C 376.54 211.23 378.12 208.22 379.02 205.04 C 379.93 206.05 381.99 207.07 380.69 208.68 C 379.24 211.25 377.26 213.47 375.69 215.96 C 374.36 215.66 373.04 215.35 371.73 215.06 C 372.17 214.06 372.61 213.07 373.07 212.08 Z" />
</g>
</svg>
